<svg width="155" height="53" viewBox="0 0 155 53" fill="none" xmlns="http://www.w3.org/2000/svg">
<g filter="url(#filter0_d_4584_31321)">
<path d="M140.761 0.476562H14.3809C8.37155 0.476562 3.5 5.41323 3.5 11.5029V35.6704C3.5 41.7601 8.37155 46.6968 14.3809 46.6968H140.761C146.77 46.6968 151.642 41.7601 151.642 35.6704V11.5029C151.642 5.41323 146.77 0.476562 140.761 0.476562Z" fill="white"/>
</g>
<path d="M60.9188 15.4254C60.9188 16.1167 60.7166 16.6673 60.3121 17.0772C59.8528 17.5651 59.2539 17.8094 58.5179 17.8094C57.7818 17.8094 57.2131 17.5619 56.7205 17.0667C56.2271 16.5716 55.9805 15.9575 55.9805 15.2245C55.9805 14.4914 56.2271 13.8773 56.7205 13.3822C57.2131 12.887 57.8127 12.6387 58.5179 12.6387C58.8677 12.6387 59.2024 12.7078 59.5205 12.846C59.8385 12.9843 60.0939 13.1684 60.2843 13.3991L59.8552 13.8347C59.5316 13.4433 59.0866 13.2471 58.5179 13.2471C58.0039 13.2471 57.5589 13.4304 57.1837 13.7961C56.8086 14.1627 56.6206 14.6385 56.6206 15.2237C56.6206 15.8088 56.8078 16.2847 57.1837 16.6512C57.5589 17.0177 58.0031 17.2002 58.5179 17.2002C59.0636 17.2002 59.5181 17.0161 59.8821 16.648C60.1185 16.4076 60.2549 16.0741 60.2914 15.6456H58.5179V15.0508H60.8847C60.9077 15.1802 60.9188 15.304 60.9188 15.4246V15.4254Z" fill="#333333"/>
<path d="M64.6708 13.3577H62.4467V14.9267H64.4527V15.5215H62.4467V17.0905H64.6708V17.6989H61.8193V12.75H64.6708V13.3585V13.3577Z" fill="#333333"/>
<path d="M67.3177 17.6997H66.6895V13.3585H65.3252V12.75H68.6812V13.3585H67.3169V17.6997H67.3177Z" fill="#333333"/>
<path d="M71.1104 17.6989V12.75H71.7378V17.6989H71.1104Z" fill="#333333"/>
<path d="M74.5218 17.6997H73.8936V13.3585H72.5293V12.75H75.8853V13.3585H74.521V17.6997H74.5218Z" fill="#333333"/>
<path d="M82.2382 17.0615C81.7583 17.5614 81.161 17.8114 80.4471 17.8114C79.7333 17.8114 79.136 17.5614 78.6569 17.0615C78.177 16.5615 77.9375 15.9498 77.9375 15.2264C77.9375 14.503 78.177 13.8913 78.6569 13.3914C79.136 12.8914 79.7333 12.6406 80.4471 12.6406C81.161 12.6406 81.7527 12.8922 82.235 13.3946C82.7164 13.8969 82.9576 14.507 82.9576 15.2264C82.9576 15.9458 82.7172 16.5615 82.2382 17.0615ZM79.1201 16.6467C79.4818 17.0173 79.9236 17.2029 80.4471 17.2029C80.9706 17.2029 81.4132 17.0181 81.7741 16.6467C82.1358 16.2762 82.3167 15.8019 82.3167 15.2264C82.3167 14.6509 82.135 14.1767 81.7741 13.8061C81.4132 13.4356 80.9706 13.2499 80.4471 13.2499C79.9236 13.2499 79.4818 13.4348 79.1201 13.8061C78.7592 14.1767 78.5784 14.6509 78.5784 15.2264C78.5784 15.8019 78.7592 16.2762 79.1201 16.6467Z" fill="#333333"/>
<path d="M83.8387 17.6989V12.75H84.6025L86.9757 16.6001H87.0027L86.9757 15.646V12.75H87.6039V17.6989H86.9488L84.4653 13.6623H84.4383L84.4653 14.6164V17.6989H83.8379H83.8387Z" fill="#333333"/>
<path d="M77.783 24.9189C76.8185 24.9189 75.9436 25.2935 75.3131 25.9253C74.692 26.5474 74.3081 27.4187 74.3081 28.4275C74.3081 29.4941 74.7436 30.4128 75.436 31.0422C76.0547 31.6049 76.8796 31.936 77.783 31.936C78.6325 31.936 79.4122 31.6426 80.0175 31.1403C80.7757 30.5101 81.2588 29.5512 81.2588 28.4275C81.2588 27.5956 80.997 26.8569 80.5576 26.2749C79.9223 25.4342 78.9149 24.9198 77.7838 24.9198L77.783 24.9189ZM77.783 30.5535C76.7337 30.5535 75.8294 29.6766 75.8294 28.4275C75.8294 27.1784 76.7345 26.3015 77.783 26.3015C78.8316 26.3015 79.7367 27.1655 79.7367 28.4275C79.7367 29.6894 78.8316 30.5535 77.783 30.5535ZM70.2018 24.9189C69.4839 24.9189 68.8153 25.1263 68.2609 25.4929C67.336 26.1037 66.7268 27.1567 66.7268 28.4275C66.7268 29.4378 67.1171 30.3148 67.7461 30.9393C68.3759 31.5639 69.2444 31.936 70.2018 31.936C70.9958 31.936 71.7287 31.6804 72.3148 31.2367C73.1421 30.6106 73.6767 29.6107 73.6767 28.4283C73.6767 27.7539 73.5054 27.1414 73.2064 26.623C72.6035 25.5789 71.482 24.9198 70.2018 24.9198V24.9189ZM70.2018 30.5535C69.1524 30.5535 68.2482 29.6766 68.2482 28.4275C68.2482 27.1784 69.1532 26.3015 70.2018 26.3015C71.2504 26.3015 72.1554 27.1655 72.1554 28.4275C72.1554 29.6894 71.2504 30.5535 70.2018 30.5535ZM61.184 25.9952V27.4838H64.6987C64.594 28.3214 64.3187 28.9323 63.8983 29.3575C63.3867 29.8759 62.5872 30.4474 61.184 30.4474C59.0202 30.4474 57.3284 28.6799 57.3284 26.4871C57.3284 24.2944 59.0202 22.5269 61.184 22.5269C62.3516 22.5269 63.2035 22.9923 63.8333 23.5903L64.8692 22.5405C63.9903 21.6901 62.8236 21.0391 61.184 21.0391C60.1775 21.0391 59.2249 21.3212 58.4063 21.8115C56.8152 22.7648 55.7285 24.5042 55.7285 26.4871C55.7285 28.4701 56.8842 30.3196 58.5578 31.2512C59.3415 31.6876 60.2386 31.936 61.1833 31.936C62.7831 31.936 63.9895 31.4047 64.9334 30.408C65.9035 29.425 66.2057 28.0425 66.2057 26.926C66.2057 26.5804 66.1795 26.2613 66.1272 25.996H61.1833L61.184 25.9952ZM98.064 27.1511C97.7753 26.3674 96.8972 24.9189 95.1007 24.9189C94.3337 24.9189 93.6214 25.1826 93.0598 25.6488C92.3158 26.2661 91.8351 27.2387 91.8351 28.4275C91.8351 30.3944 93.3041 31.936 95.2712 31.936C96.8576 31.936 97.7761 30.953 98.156 30.3815L96.9758 29.5841C96.5823 30.1685 96.0446 30.5543 95.2712 30.5543C94.4978 30.5543 93.9466 30.1958 93.5928 29.4909L98.2219 27.5505L98.0648 27.1519L98.064 27.1511ZM93.343 28.3206C93.3033 26.9654 94.3789 26.2741 95.1522 26.2741C95.7558 26.2741 96.2667 26.5796 96.4372 27.0184L94.8207 27.6984L93.343 28.3206ZM89.5793 31.7222H91.1006V21.4104H89.5793V31.7222ZM87.0879 25.7026H87.0356C86.6945 25.2911 86.0385 24.9189 85.2128 24.9189C84.3871 24.9189 83.6431 25.2485 83.0466 25.7991C82.3534 26.4389 81.8949 27.3761 81.8949 28.4411C81.8949 29.6701 82.5144 30.7287 83.402 31.3493C83.9342 31.7214 84.5632 31.9368 85.212 31.9368C86.0385 31.9368 86.6937 31.5647 87.0348 31.1395H87.0871V31.6442C87.0871 32.9866 86.3788 33.7044 85.2382 33.7044C84.307 33.7044 83.7304 33.0268 83.494 32.4553L82.1694 33.0131C82.5493 33.9431 83.559 35.0861 85.2382 35.0861C87.0221 35.0861 88.5299 34.0227 88.5299 31.4312V25.132H87.0871V25.7034L87.0879 25.7026ZM85.3437 30.5527C84.2943 30.5527 83.4163 29.6621 83.4163 28.4395C83.4163 27.217 84.2951 26.2999 85.3437 26.2999C86.3923 26.2999 87.1926 27.2033 87.1926 28.4395C87.1926 29.6758 86.3796 30.5527 85.3437 30.5527ZM105.189 21.4104H101.55V31.7222H103.069V27.815H105.19C106.158 27.815 107.117 27.4067 107.757 26.6857C108.229 26.1528 108.529 25.4486 108.529 24.6127C108.529 23.7768 108.238 23.0927 107.777 22.5622C107.136 21.8268 106.168 21.4096 105.19 21.4096L105.189 21.4104ZM105.228 26.3802H103.068V22.8452H105.228C106.364 22.8452 107.009 23.7977 107.009 24.6127C107.009 25.4277 106.364 26.3802 105.228 26.3802ZM114.615 24.8997C113.515 24.8997 112.376 25.3908 111.904 26.4783L113.253 27.049C113.541 26.4783 114.078 26.2926 114.641 26.2926C115.426 26.2926 116.225 26.7701 116.238 27.6189V27.725C115.963 27.5658 115.375 27.3271 114.654 27.3271C114.029 27.3271 113.399 27.4766 112.885 27.7676C112.203 28.1534 111.722 28.7868 111.722 29.6484C111.722 30.3968 112.072 31.0004 112.606 31.3967C113.057 31.7311 113.637 31.9167 114.249 31.9167C115.27 31.9167 115.833 31.4521 116.187 30.9088H116.239V31.7045H117.706V27.7515C117.706 26.6648 117.231 25.8634 116.48 25.3908C115.966 25.0676 115.324 24.8989 114.616 24.8989L114.615 24.8997ZM114.431 30.5511C113.934 30.5511 113.24 30.2987 113.24 29.6758C113.24 28.88 114.104 28.5746 114.85 28.5746C115.518 28.5746 115.832 28.7209 116.237 28.9194C116.119 29.8743 115.308 30.5511 114.431 30.5511H114.431ZM123.045 25.1255L122.324 26.9766L121.304 29.5962H121.252L119.445 25.1255H117.809L119.116 28.1397L120.519 31.3742L118.974 34.8497H120.558L123.521 27.9508L124.734 25.1247H123.045V25.1255ZM109.365 31.723H110.883V21.4112H109.365V31.723Z" fill="#333333"/>
<path d="M44.2133 19.5829L32.1172 12.3906C31.4985 12.0225 30.7672 12.2331 30.3896 12.7499L40.6344 23.1919L44.2141 19.5821L44.2133 19.5829Z" fill="url(#paint0_linear_4584_31321)"/>
<path d="M30.1338 32.7828C30.1338 33.0738 30.2218 33.3334 30.3678 33.5448L40.634 23.192L30.3892 12.75C30.2306 12.967 30.1338 13.2371 30.1338 13.5417V32.7828Z" fill="url(#paint1_linear_4584_31321)"/>
<path d="M44.1524 26.7795L48.2983 24.3143C49.1653 23.7982 49.1653 22.5283 48.2983 22.0122L44.2134 19.584L40.6338 23.1938L44.1524 26.7803V26.7795Z" fill="url(#paint2_linear_4584_31321)"/>
<path d="M30.3672 33.5461C30.7384 34.0847 31.4864 34.3106 32.117 33.9352L44.152 26.7799L40.6334 23.1934L30.3672 33.5461Z" fill="url(#paint3_linear_4584_31321)"/>
<defs>
<filter id="filter0_d_4584_31321" x="0.537165" y="0.476562" width="154.067" height="52.1464" filterUnits="userSpaceOnUse" color-interpolation-filters="sRGB">
<feFlood flood-opacity="0" result="BackgroundImageFix"/>
<feColorMatrix in="SourceAlpha" type="matrix" values="0 0 0 0 0 0 0 0 0 0 0 0 0 0 0 0 0 0 127 0" result="hardAlpha"/>
<feOffset dy="2.96283"/>
<feGaussianBlur stdDeviation="1.48142"/>
<feComposite in2="hardAlpha" operator="out"/>
<feColorMatrix type="matrix" values="0 0 0 0 0 0 0 0 0 0 0 0 0 0 0 0 0 0 0.1 0"/>
<feBlend mode="normal" in2="BackgroundImageFix" result="effect1_dropShadow_4584_31321"/>
<feBlend mode="normal" in="SourceGraphic" in2="effect1_dropShadow_4584_31321" result="shape"/>
</filter>
<linearGradient id="paint0_linear_4584_31321" x1="14.0001" y1="-2.27688" x2="39.216" y2="18.1669" gradientUnits="userSpaceOnUse">
<stop stop-color="#32A071"/>
<stop offset="0.07" stop-color="#2DA771"/>
<stop offset="0.48" stop-color="#15CF74"/>
<stop offset="0.8" stop-color="#06E775"/>
<stop offset="1" stop-color="#00F076"/>
</linearGradient>
<linearGradient id="paint1_linear_4584_31321" x1="47.7909" y1="23.0433" x2="29.1613" y2="23.1513" gradientUnits="userSpaceOnUse">
<stop stop-color="#00A1FF"/>
<stop offset="0.26" stop-color="#00BEFF"/>
<stop offset="0.51" stop-color="#00D2FF"/>
<stop offset="0.76" stop-color="#00DFFF"/>
<stop offset="1" stop-color="#00E3FF"/>
</linearGradient>
<linearGradient id="paint2_linear_4584_31321" x1="50.4003" y1="23.6761" x2="33.5813" y2="22.3742" gradientUnits="userSpaceOnUse">
<stop stop-color="#FFE000"/>
<stop offset="0.41" stop-color="#FFBD00"/>
<stop offset="0.78" stop-color="#FFA500"/>
<stop offset="1" stop-color="#FF9C00"/>
</linearGradient>
<linearGradient id="paint3_linear_4584_31321" x1="48.2099" y1="21.0738" x2="15.58" y2="42.4491" gradientUnits="userSpaceOnUse">
<stop stop-color="#FF3A44"/>
<stop offset="1" stop-color="#C31162"/>
</linearGradient>
</defs>
</svg>
