<svg width="155" height="53" viewBox="0 0 155 53" fill="none" xmlns="http://www.w3.org/2000/svg">
<g filter="url(#filter0_d_4584_31296)">
<path d="M14.2393 0.476562H140.619C146.624 0.476562 151.5 5.41736 151.5 11.5027V35.6706C151.5 41.756 146.624 46.6968 140.619 46.6968H14.2393C8.23411 46.696 3.3584 41.756 3.3584 35.6698V11.5027C3.3584 5.41736 8.23411 0.476562 14.2393 0.476562Z" fill="white"/>
</g>
<path d="M60.5383 11.1121C62.1778 11.1121 63.1463 12.1482 63.1463 13.9101C63.1463 15.6719 62.181 16.712 60.5383 16.712H58.6807V11.1113H60.5383V11.1121ZM59.3699 16.0843H60.4923C61.7447 16.0843 62.442 15.3078 62.442 13.9189C62.442 12.53 61.7487 11.7415 60.4923 11.7415H59.3699V16.0843Z" fill="#333333"/>
<path d="M64.0938 14.6937C64.0938 13.4052 64.837 12.6055 65.9395 12.6055C67.042 12.6055 67.7821 13.4052 67.7821 14.6937C67.7821 15.9821 67.0388 16.7819 65.9395 16.7819C64.8401 16.7819 64.0938 15.9781 64.0938 14.6937ZM67.1039 14.6937C67.1039 13.7428 66.6446 13.1995 65.9395 13.1995C65.2343 13.1995 64.7711 13.7428 64.7711 14.6937C64.7711 15.6445 65.2343 16.1879 65.9395 16.1879C66.6446 16.1879 67.1039 15.6445 67.1039 14.6937Z" fill="#333333"/>
<path d="M72.801 16.7143H72.1228L71.2225 13.59H71.2075L70.3112 16.7143H69.633L68.5186 12.6777H69.1809L69.9772 15.9612H69.9923L70.8926 12.6777H71.5358L72.4401 15.9612H72.4551L73.2515 12.6777H73.9106L72.8002 16.7143H72.801Z" fill="#333333"/>
<path d="M74.8484 12.6746H75.4767V13.3192H75.4917C75.7138 12.8844 76.139 12.6055 76.7553 12.6055C77.6286 12.6055 78.1338 13.1761 78.1338 14.0916V16.7111H77.4675V14.2114C77.4675 13.5595 77.1646 13.2027 76.5522 13.2027C75.9399 13.2027 75.5139 13.6528 75.5139 14.336V16.7111H74.8477V12.6746H74.8484Z" fill="#333333"/>
<path d="M79.4062 11.1113H80.0725V16.712H79.4062V11.1113Z" fill="#333333"/>
<path d="M81.1699 14.6937C81.1699 13.4052 81.9131 12.6055 83.0157 12.6055C84.1182 12.6055 84.8582 13.4052 84.8582 14.6937C84.8582 15.9821 84.115 16.7819 83.0157 16.7819C81.9163 16.7819 81.1699 15.9781 81.1699 14.6937ZM84.1801 14.6937C84.1801 13.7428 83.7208 13.1995 83.0157 13.1995C82.3105 13.1995 81.8473 13.7428 81.8473 14.6937C81.8473 15.6445 82.3105 16.1879 83.0157 16.1879C83.7208 16.1879 84.1801 15.6445 84.1801 14.6937Z" fill="#333333"/>
<path d="M85.7596 15.5706C85.7596 14.8793 86.2847 14.4453 87.2032 14.3907L88.3446 14.3247V13.9872C88.3446 13.4944 88.0225 13.1995 87.4713 13.1995C86.9581 13.1995 86.6361 13.4438 86.552 13.8401H85.9087C85.9547 13.1416 86.5448 12.6055 87.4864 12.6055C88.4279 12.6055 89.0109 13.1175 89.0109 13.9212V16.712H88.3787V16.0175H88.3636C88.1264 16.4797 87.6204 16.7819 87.0842 16.7819C86.291 16.7819 85.7588 16.2964 85.7588 15.5706H85.7596ZM88.3446 15.1784V14.8488L87.2801 14.9147C86.7439 14.9493 86.4378 15.1904 86.4378 15.5706C86.4378 15.9508 86.7558 16.2072 87.2341 16.2072C87.8623 16.2072 88.3446 15.7611 88.3446 15.1784Z" fill="#333333"/>
<path d="M90.0545 14.6937C90.0545 13.4286 90.7398 12.6055 91.7432 12.6055C92.3135 12.6055 92.7735 12.8885 93.0107 13.3314H93.0258V11.1113H93.6921V16.712H93.0559V16.0288H93.0448C92.7878 16.4942 92.3325 16.782 91.7583 16.782C90.743 16.782 90.0537 15.9589 90.0537 14.6937H90.0545ZM90.7366 14.6937C90.7366 15.6101 91.1808 16.188 91.886 16.188C92.5911 16.188 93.0313 15.598 93.0313 14.6937C93.0313 13.7895 92.5721 13.1995 91.886 13.1995C91.1999 13.1995 90.7366 13.7815 90.7366 14.6937Z" fill="#333333"/>
<path d="M96.79 14.6937C96.79 13.4052 97.5332 12.6055 98.6358 12.6055C99.7383 12.6055 100.478 13.4052 100.478 14.6937C100.478 15.9821 99.7351 16.7819 98.6358 16.7819C97.5364 16.7819 96.79 15.9781 96.79 14.6937ZM99.8002 14.6937C99.8002 13.7428 99.3409 13.1995 98.6358 13.1995C97.9306 13.1995 97.4674 13.7428 97.4674 14.6937C97.4674 15.6445 97.9306 16.1879 98.6358 16.1879C99.3409 16.1879 99.8002 15.6445 99.8002 14.6937Z" fill="#333333"/>
<path d="M101.541 12.6746H102.169V13.3192H102.184C102.406 12.8844 102.831 12.6055 103.448 12.6055C104.321 12.6055 104.826 13.1761 104.826 14.0916V16.7111H104.16V14.2114C104.16 13.5595 103.857 13.2027 103.245 13.2027C102.632 13.2027 102.206 13.6528 102.206 14.336V16.7111H101.54V12.6746H101.541Z" fill="#333333"/>
<path d="M108.947 11.7031V12.6773H109.72V13.2327H108.947V15.6312C108.947 16.0001 109.1 16.1665 109.441 16.1665C109.518 16.1665 109.671 16.1544 109.717 16.1472V16.7139C109.637 16.7331 109.453 16.7452 109.296 16.7452C108.565 16.7452 108.281 16.4422 108.281 15.6665V13.2327H107.688V12.6773H108.281V11.7031H108.947Z" fill="#333333"/>
<path d="M110.856 11.1113H111.523V13.3201H111.538C111.76 12.87 112.197 12.6063 112.801 12.6063C113.674 12.6063 114.203 13.2044 114.203 14.1046V16.7128H113.536V14.2292C113.536 13.5886 113.218 13.2044 112.594 13.2044C111.932 13.2044 111.522 13.6625 111.522 14.361V16.7128H110.855V11.1121L110.856 11.1113Z" fill="#333333"/>
<path d="M118.74 15.5553C118.625 16.2618 117.951 16.7819 117.082 16.7819C115.94 16.7819 115.247 15.9781 115.247 14.7089C115.247 13.4398 115.951 12.6055 117.051 12.6055C118.15 12.6055 118.789 13.3972 118.789 14.6197V14.8761H115.932V14.9147C115.932 15.6871 116.381 16.1951 117.097 16.1951C117.602 16.1951 117.974 15.9355 118.085 15.5545H118.74V15.5553ZM115.936 14.3481H118.1C118.085 13.6729 117.667 13.1914 117.039 13.1914C116.411 13.1914 115.978 13.6769 115.936 14.3481H115.936Z" fill="#333333"/>
<path d="M62.1108 21.2012H63.8352L67.5687 31.6189H65.8943L64.9536 28.8033H60.9924L60.0445 31.6189H58.3701L62.1108 21.2012ZM61.4199 27.5036H64.5189L62.9873 22.9261H62.9587L61.4199 27.5036Z" fill="#333333"/>
<path d="M69.2461 24.0247H70.7849V25.3317H70.8206C71.2695 24.429 72.096 23.8809 73.1644 23.8809C75.0736 23.8809 76.2991 25.3968 76.2991 27.8226V27.8298C76.2991 30.2484 75.0665 31.7715 73.1859 31.7715C72.1246 31.7715 71.2624 31.2225 70.8206 30.3424H70.7849V34.1475H69.2461V24.0255V24.0247ZM74.7318 27.829V27.8218C74.7318 26.2046 73.9695 25.2159 72.7655 25.2159C71.5614 25.2159 70.7777 26.2407 70.7777 27.8218V27.829C70.7777 29.4028 71.6042 30.4276 72.7655 30.4276C73.9267 30.4276 74.7318 29.4309 74.7318 27.829Z" fill="#333333"/>
<path d="M78.2188 24.0247H79.7575V25.3317H79.7932C80.2422 24.429 81.0687 23.8809 82.1371 23.8809C84.0463 23.8809 85.2718 25.3968 85.2718 27.8226V27.8298C85.2718 30.2484 84.0392 31.7715 82.1585 31.7715C81.0972 31.7715 80.235 31.2225 79.7932 30.3424H79.7575V34.1475H78.2188V24.0255V24.0247ZM83.7044 27.829V27.8218C83.7044 26.2046 82.9422 25.2159 81.7381 25.2159C80.5341 25.2159 79.7504 26.2407 79.7504 27.8218V27.829C79.7504 29.4028 80.5769 30.4276 81.7381 30.4276C82.8993 30.4276 83.7044 29.4309 83.7044 27.829Z" fill="#333333"/>
<path d="M90.6077 28.8437L90.6006 28.7352H92.1536L92.1679 28.8292C92.3107 29.7897 93.2578 30.3886 94.6331 30.3886C96.0085 30.3886 96.8771 29.7608 96.8771 28.7858V28.7786C96.8771 27.9411 96.3139 27.4861 94.9536 27.1831L93.8352 26.9452C91.8189 26.512 90.8433 25.5731 90.8433 24.0283V24.0211C90.8504 22.2447 92.3964 21.0254 94.5697 21.0254C96.743 21.0254 98.1819 22.2093 98.2889 23.9568L98.2961 24.0797H96.743L96.7359 23.9785C96.5931 23.0107 95.7666 22.4264 94.5491 22.4264C93.2736 22.4336 92.4614 23.0469 92.4614 23.9568V23.964C92.4614 24.7436 93.046 25.2203 94.3278 25.5016L95.4533 25.7395C97.5767 26.1945 98.488 27.0682 98.488 28.6781V28.6854C98.488 30.5839 97.0064 31.7895 94.5697 31.7895C92.2615 31.7895 90.737 30.6779 90.6085 28.8437H90.6077Z" fill="#333333"/>
<path d="M100.899 29.6181V25.2648H99.8232V24.023H100.899V22.0449H102.473V24.023H103.876V25.2648H102.473V29.524C102.473 30.2965 102.815 30.5272 103.463 30.5272C103.627 30.5272 103.762 30.5127 103.876 30.4982V31.7039C103.698 31.7328 103.406 31.769 103.093 31.769C101.611 31.769 100.899 31.134 100.899 29.6173V29.6181Z" fill="#333333"/>
<path d="M105.362 27.8226V27.8081C105.362 25.3823 106.78 23.8809 108.91 23.8809C111.041 23.8809 112.472 25.3751 112.472 27.8081V27.8226C112.472 30.2701 111.062 31.7715 108.917 31.7715C106.773 31.7715 105.362 30.2628 105.362 27.8226ZM110.898 27.8226V27.8081C110.898 26.1475 110.114 25.1878 108.91 25.1878C107.706 25.1878 106.937 26.1483 106.937 27.8081V27.8226C106.937 29.5049 107.72 30.4646 108.925 30.4646C110.129 30.4646 110.898 29.4968 110.898 27.8226Z" fill="#333333"/>
<path d="M114.392 24.0247H115.93V25.3244H115.966C116.208 24.4363 116.835 23.8809 117.69 23.8809C117.911 23.8809 118.104 23.917 118.225 23.9387V25.3895C118.104 25.3389 117.833 25.3027 117.534 25.3027C116.544 25.3027 115.931 25.9594 115.931 27.0935V31.6204H114.392V24.0255L114.392 24.0247Z" fill="#333333"/>
<path d="M119.254 27.8515V27.8443C119.254 25.4691 120.608 23.8809 122.709 23.8809C124.81 23.8809 126.1 25.4112 126.1 27.6924V28.2196H120.792C120.82 29.656 121.597 30.4935 122.822 30.4935C123.734 30.4935 124.34 30.0169 124.532 29.447L124.554 29.3891H126.014L126 29.4687C125.758 30.6744 124.604 31.7715 122.787 31.7715C120.585 31.7715 119.253 30.2484 119.253 27.8515H119.254ZM120.814 27.1152H124.575C124.447 25.8011 123.72 25.1589 122.716 25.1589C121.712 25.1589 120.949 25.8445 120.814 27.1152Z" fill="#333333"/>
<path d="M44.6601 19.1352C43.7004 19.8111 43.0484 20.4895 42.7034 21.1711C42.3583 21.8527 42.1854 22.5914 42.1854 23.3855C42.1854 24.0141 42.2877 24.5888 42.4924 25.1104C42.697 25.6321 42.9865 26.1272 43.3609 26.5958C43.7353 27.0644 44.3611 27.5298 45.2392 27.9919C44.8997 28.9999 44.373 30.0279 43.6599 31.0776C42.9461 32.1266 42.2996 32.8708 41.7206 33.3097C41.1416 33.7486 40.5887 33.968 40.0621 33.968C39.6409 33.968 39.0729 33.8322 38.3599 33.5589L38.0267 33.4343L37.4826 33.2028C37.0963 33.0847 36.6696 33.0252 36.2016 33.0252C35.7336 33.0252 35.184 33.1321 34.5867 33.3451L34.1655 33.505L33.6388 33.7188C33.2176 33.8852 32.7965 33.968 32.3753 33.968C31.4861 33.968 30.5327 33.337 29.5143 32.0743C28.4966 30.8116 27.7272 29.454 27.2061 28.0016C26.685 26.5492 26.4248 25.0823 26.4248 23.6001C26.4248 21.6912 26.9602 20.1029 28.031 18.8337C29.1018 17.5654 30.5549 16.9312 32.3919 16.9312C33.059 16.9312 33.6848 17.0558 34.2702 17.305L34.6739 17.4649L35.0951 17.6425C35.4695 17.7969 35.7677 17.874 35.9898 17.874C36.3174 17.874 36.645 17.8089 36.9726 17.6787L37.5342 17.4649L37.9379 17.305C38.5931 17.0558 39.318 16.9312 40.1144 16.9312C41.9982 16.9312 43.5132 17.6667 44.6601 19.1368V19.1352ZM40.2024 10.6602C40.2254 10.9214 40.2373 11.1223 40.2373 11.2646C40.2373 12 40.0264 12.7588 39.6052 13.5409C39.184 14.323 38.6335 14.9314 37.9553 15.3638C37.2764 15.7971 36.5276 16.0133 35.709 16.0133C35.6741 15.7288 35.6567 15.5214 35.6567 15.3912C35.6567 14.7626 35.8407 14.1019 36.2095 13.4083C36.5784 12.7146 37.0781 12.1246 37.7103 11.6383C38.3424 11.1521 39.0555 10.8442 39.8511 10.7132C39.9217 10.702 40.0383 10.6835 40.2024 10.6602Z" fill="#333333"/>
<defs>
<filter id="filter0_d_4584_31296" x="0.395564" y="0.476562" width="154.067" height="52.1464" filterUnits="userSpaceOnUse" color-interpolation-filters="sRGB">
<feFlood flood-opacity="0" result="BackgroundImageFix"/>
<feColorMatrix in="SourceAlpha" type="matrix" values="0 0 0 0 0 0 0 0 0 0 0 0 0 0 0 0 0 0 127 0" result="hardAlpha"/>
<feOffset dy="2.96283"/>
<feGaussianBlur stdDeviation="1.48142"/>
<feComposite in2="hardAlpha" operator="out"/>
<feColorMatrix type="matrix" values="0 0 0 0 0 0 0 0 0 0 0 0 0 0 0 0 0 0 0.1 0"/>
<feBlend mode="normal" in2="BackgroundImageFix" result="effect1_dropShadow_4584_31296"/>
<feBlend mode="normal" in="SourceGraphic" in2="effect1_dropShadow_4584_31296" result="shape"/>
</filter>
</defs>
</svg>
