<svg width="24" height="25" viewBox="0 0 24 25" fill="none" xmlns="http://www.w3.org/2000/svg">
<path d="M12 0.193359C8.7435 0.193359 8.334 0.208359 7.0545 0.265359C5.775 0.325359 4.9035 0.526359 4.14 0.823359C3.33914 1.12459 2.61374 1.5971 2.0145 2.20786C1.40411 2.8074 0.931661 3.53272 0.63 4.33336C0.333 5.09536 0.1305 5.96836 0.072 7.24336C0.015 8.52586 0 8.93386 0 12.1949C0 15.4529 0.015 15.8609 0.072 17.1404C0.132 18.4184 0.333 19.2899 0.63 20.0534C0.9375 20.8424 1.347 21.5114 2.0145 22.1789C2.6805 22.8464 3.3495 23.2574 4.1385 23.5634C4.9035 23.8604 5.7735 24.0629 7.0515 24.1214C8.3325 24.1784 8.7405 24.1934 12 24.1934C15.2595 24.1934 15.666 24.1784 16.947 24.1214C18.2235 24.0614 19.098 23.8604 19.8615 23.5634C20.6618 23.262 21.3867 22.7895 21.9855 22.1789C22.653 21.5114 23.0625 20.8424 23.37 20.0534C23.6655 19.2899 23.868 18.4184 23.928 17.1404C23.985 15.8609 24 15.4529 24 12.1934C24 8.93386 23.985 8.52586 23.928 7.24486C23.868 5.96836 23.6655 5.09536 23.37 4.33336C23.0684 3.5327 22.5959 2.80737 21.9855 2.20786C21.3864 1.59687 20.661 1.12433 19.86 0.823359C19.095 0.526359 18.222 0.323859 16.9455 0.265359C15.6645 0.208359 15.258 0.193359 11.997 0.193359H12.0015H12ZM10.9245 2.35636H12.0015C15.2055 2.35636 15.585 2.36686 16.8495 2.42536C18.0195 2.47786 18.6555 2.67436 19.0785 2.83786C19.638 3.05536 20.0385 3.31636 20.4585 3.73636C20.8785 4.15636 21.138 4.55536 21.3555 5.11636C21.5205 5.53786 21.7155 6.17386 21.768 7.34386C21.8265 8.60836 21.8385 8.98786 21.8385 12.1904C21.8385 15.3929 21.8265 15.7739 21.768 17.0384C21.7155 18.2084 21.519 18.8429 21.3555 19.2659C21.1631 19.7869 20.856 20.258 20.457 20.6444C20.037 21.0644 19.638 21.3239 19.077 21.5414C18.657 21.7064 18.021 21.9014 16.8495 21.9554C15.585 22.0124 15.2055 22.0259 12.0015 22.0259C8.7975 22.0259 8.4165 22.0124 7.152 21.9554C5.982 21.9014 5.3475 21.7064 4.9245 21.5414C4.40325 21.3492 3.93169 21.0427 3.5445 20.6444C3.14513 20.2574 2.83758 19.7858 2.6445 19.2644C2.481 18.8429 2.2845 18.2069 2.232 17.0369C2.175 15.7724 2.163 15.3929 2.163 12.1874C2.163 8.98336 2.175 8.60536 2.232 7.34086C2.286 6.17086 2.481 5.53486 2.646 5.11186C2.8635 4.55236 3.1245 4.15186 3.5445 3.73186C3.9645 3.31186 4.3635 3.05236 4.9245 2.83486C5.3475 2.66986 5.982 2.47486 7.152 2.42086C8.259 2.36986 8.688 2.35486 10.9245 2.35336V2.35636ZM18.4065 4.34836C18.2174 4.34836 18.0301 4.38561 17.8554 4.45797C17.6807 4.53034 17.522 4.63641 17.3883 4.77013C17.2545 4.90384 17.1485 5.06259 17.0761 5.2373C17.0037 5.412 16.9665 5.59926 16.9665 5.78836C16.9665 5.97746 17.0037 6.16471 17.0761 6.33942C17.1485 6.51413 17.2545 6.67288 17.3883 6.80659C17.522 6.94031 17.6807 7.04638 17.8554 7.11875C18.0301 7.19111 18.2174 7.22836 18.4065 7.22836C18.7884 7.22836 19.1547 7.07665 19.4247 6.80659C19.6948 6.53654 19.8465 6.17027 19.8465 5.78836C19.8465 5.40645 19.6948 5.04018 19.4247 4.77013C19.1547 4.50007 18.7884 4.34836 18.4065 4.34836ZM12.0015 6.03136C11.1841 6.01861 10.3723 6.16859 9.61347 6.47257C8.85459 6.77655 8.16377 7.22847 7.58123 7.80199C6.99868 8.37552 6.53605 9.05921 6.22026 9.81325C5.90448 10.5673 5.74185 11.3766 5.74185 12.1941C5.74185 13.0116 5.90448 13.8209 6.22026 14.575C6.53605 15.329 6.99868 16.0127 7.58123 16.5862C8.16377 17.1598 8.85459 17.6117 9.61347 17.9156C10.3723 18.2196 11.1841 18.3696 12.0015 18.3569C13.6193 18.3316 15.1623 17.6712 16.2975 16.5182C17.4326 15.3652 18.0689 13.8121 18.0689 12.1941C18.0689 10.5761 17.4326 9.02298 16.2975 7.86998C15.1623 6.71699 13.6193 6.0566 12.0015 6.03136ZM12.0015 8.19286C13.0625 8.19286 14.08 8.61434 14.8303 9.36458C15.5805 10.1148 16.002 11.1324 16.002 12.1934C16.002 13.2544 15.5805 14.2719 14.8303 15.0221C14.08 15.7724 13.0625 16.1939 12.0015 16.1939C10.9405 16.1939 9.92296 15.7724 9.17272 15.0221C8.42248 14.2719 8.001 13.2544 8.001 12.1934C8.001 11.1324 8.42248 10.1148 9.17272 9.36458C9.92296 8.61434 10.9405 8.19286 12.0015 8.19286Z" fill="#6C6C6C"/>
</svg>
