<svg width="24" height="25" viewBox="0 0 24 25" fill="none" xmlns="http://www.w3.org/2000/svg">
<path d="M4.13867 4.89348C4.91733 5.49974 5.208 5.45369 6.66933 5.36032L20.4453 4.56732C20.7387 4.56732 20.4947 4.28594 20.3973 4.23989L18.1093 2.65389C17.6707 2.32774 17.0867 1.95299 15.968 2.04635L2.628 2.98005C2.14267 3.02609 2.04533 3.26015 2.23867 3.44689L4.13867 4.89348ZM4.96533 7.97338V21.8764C4.96533 22.6247 5.35467 22.9035 6.232 22.8575L21.3707 22.0171C22.2467 21.9711 22.344 21.4569 22.344 20.8507V7.03969C22.344 6.43343 22.1013 6.106 21.5653 6.15332L5.744 7.03969C5.16 7.08573 4.96533 7.36584 4.96533 7.97338ZM19.912 8.71906C20.008 9.13858 19.912 9.55938 19.472 9.6067L18.7427 9.74612V20.0103C18.1093 20.3378 17.5253 20.5245 17.0387 20.5245C16.26 20.5245 16.0653 20.2904 15.4813 19.5908L10.7093 12.4052V19.358L12.22 19.6842C12.22 19.6842 12.22 20.5245 11.0013 20.5245L7.64267 20.7112C7.54533 20.5245 7.64267 20.0589 7.984 19.9643L8.86 19.7315V10.5391L7.64267 10.4457C7.54533 10.0249 7.78933 9.41868 8.47067 9.37136L12.0733 9.13986L17.0387 16.4175V9.98018L15.772 9.84076C15.676 9.32659 16.0653 8.9544 16.552 8.90707L19.912 8.72034V8.71906ZM1.508 1.7202L15.3827 0.740465C17.0853 0.599771 17.524 0.694419 18.596 1.44009L23.024 4.42663C23.7547 4.93952 23.9987 5.07894 23.9987 5.63915V22.0171C23.9987 23.0442 23.6093 23.6505 22.2467 23.7438L6.13333 24.6775C5.11067 24.7236 4.624 24.5841 4.088 23.9306L0.826666 19.8709C0.242667 19.124 0 18.565 0 17.9102V3.35352C0 2.5132 0.388 1.81357 1.508 1.7202Z" fill="#6C6C6C"/>
</svg>
