<svg width="24" height="24" viewBox="0 0 24 24" fill="none" xmlns="http://www.w3.org/2000/svg">
<path d="M3.74902 9.9375V21C3.74902 21.1989 3.82804 21.3897 3.96869 21.5303C4.10935 21.671 4.30011 21.75 4.49902 21.75H8.99903V15.375C8.99903 15.0766 9.11755 14.7905 9.32853 14.5795C9.53951 14.3685 9.82566 14.25 10.124 14.25H13.874C14.1724 14.25 14.4585 14.3685 14.6695 14.5795C14.8805 14.7905 14.999 15.0766 14.999 15.375V21.75H19.499C19.6979 21.75 19.8887 21.671 20.0294 21.5303C20.17 21.3897 20.249 21.1989 20.249 21V9.9375" stroke="#6C6C6C" stroke-width="2" stroke-linecap="round" stroke-linejoin="round"/>
<path d="M22.5 11.9992L12.5105 2.43668C12.2761 2.18918 11.7281 2.18637 11.4895 2.43668L1.5 11.9992" stroke="#6C6C6C" stroke-width="2" stroke-linecap="round" stroke-linejoin="round"/>
<path d="M18.7499 8.39282V3H16.499V6.23569" stroke="#6C6C6C" stroke-width="2" stroke-linecap="round" stroke-linejoin="round"/>
</svg>
