<svg width="48" height="48" viewBox="0 0 48 48" fill="none" xmlns="http://www.w3.org/2000/svg">
<path d="M24.0002 12.8617C26.5552 12.8617 28.6435 14.9501 28.6435 17.5051C28.6435 20.0601 26.5552 22.1484 24.0002 22.1484C21.4452 22.1484 19.3568 20.0601 19.3568 17.5051C19.3568 14.9501 21.4452 12.8617 24.0002 12.8617ZM24.0002 10.7617C20.2785 10.7617 17.2568 13.7834 17.2568 17.5051C17.2568 21.2267 20.2785 24.2484 24.0002 24.2484C27.7218 24.2484 30.7435 21.2267 30.7435 17.5051C30.7435 13.7834 27.7218 10.7617 24.0002 10.7617Z" fill="#BBBBBB"/>
<path d="M24.0001 27.6664C30.1018 27.6664 32.6335 30.8164 33.6718 33.1264H14.3401C15.3785 30.8047 17.8985 27.6664 24.0001 27.6664ZM24.0001 25.5664C12.6485 25.5664 11.5635 35.2381 11.5635 35.2381H36.4485C36.4485 35.2381 35.3635 25.5781 24.0118 25.5781L24.0001 25.5664Z" fill="#BBBBBB"/>
<circle cx="24" cy="24" r="23" stroke="white" stroke-width="2"/>
</svg>
