<svg width="190" height="142" viewBox="0 0 190 142" fill="none" xmlns="http://www.w3.org/2000/svg">
<g clip-path="url(#clip0_5483_21742)">
<path d="M71.9877 76.4725C71.869 76.6582 71.7529 76.8439 71.5569 77.1534C71.3969 76.7536 71.2834 76.4725 71.1699 76.1914C71.4434 76.2843 71.7143 76.3771 71.9877 76.4725Z" fill="white"/>
<path d="M97.0533 72.5748C97.0017 72.7656 96.9965 72.972 96.9707 73.1706C96.4083 73.6993 95.8795 74.2718 95.2758 74.7438C94.7805 75.1307 94.2233 75.0301 93.7125 74.6639C93.6119 74.5916 93.4519 74.602 93.3204 74.5736C91.7338 72.7373 91.3288 70.5915 91.7828 68.2754C92.015 67.0787 93.4597 66.1941 94.3884 66.1322C95.4667 66.0626 96.9191 67.0968 97.2313 68.6546C97.4996 69.9828 97.4041 71.2801 97.0533 72.5748Z" fill="black"/>
<path d="M167.267 53.1464C167.295 54.8847 166.478 56.2156 165.283 57.4148C163.828 58.8772 161.937 59.4136 160.111 60.1487C158.405 60.8373 156.76 61.6961 155.152 62.5911C154.118 63.1662 153.058 63.7955 152.482 64.9252C152.348 65.1908 152.263 65.4797 152.157 65.7582C152.085 65.9645 151.956 66.1657 151.951 66.372C151.93 67.1406 151.951 67.9092 151.959 68.6777C151.92 69.4102 151.226 69.8976 150.602 69.9415C149.686 70.0034 149.165 69.7016 148.866 68.8093C148.337 67.2334 148.422 65.655 149.023 64.1127C149.709 62.3461 151.058 61.139 152.593 60.1435C153.543 59.5271 154.585 59.05 155.586 58.5109C155.805 58.4104 156.027 58.3098 156.246 58.2092C156.592 58.057 156.938 57.9023 157.286 57.7501C157.332 57.7372 157.381 57.7217 157.428 57.7088C158.385 57.3323 159.36 56.9893 160.296 56.5689C161.119 56.1975 161.978 55.839 162.685 55.2974C164.432 53.964 164.383 52.6667 163.41 50.4693C162.678 48.8136 161.352 47.8696 159.468 47.8644C158.602 47.8619 157.719 47.7587 156.876 47.8954C156.115 48.0166 155.387 48.3803 154.662 48.682C154.507 48.7439 154.404 48.9812 154.327 49.1592C154.128 49.6053 153.636 49.7188 153.298 49.3603C152.916 48.9528 152.802 48.5195 153.096 47.9779C153.734 46.8148 154.778 46.1958 155.975 45.8295C158.32 45.11 160.678 44.9965 162.99 45.9766C164.127 46.4588 164.976 47.3254 165.735 48.2797C165.809 48.3957 165.887 48.5118 165.962 48.6279C166.785 50.0231 167.239 51.5268 167.267 53.1464Z" fill="black"/>
<path d="M152.737 76.5427C152.572 77.466 152.123 78.2268 151.38 78.8071C151.256 78.8768 151.132 78.9464 151.009 79.0135C149.123 79.8259 147.944 79.1012 147.185 78.1056C146.063 76.6304 146.667 74.5104 148.367 73.7521C149.27 73.3498 150.116 73.1976 151.078 73.5123C152.58 74.0023 152.972 75.2274 152.737 76.5427Z" fill="black"/>
<path d="M56.5585 43.2681C56.525 43.3042 56.4889 43.3377 56.4554 43.3712C56.4528 43.33 56.4502 43.2913 56.4502 43.25C56.4863 43.2577 56.5224 43.2629 56.5585 43.2681Z" fill="black"/>
<path d="M65.8309 45.7475C65.8128 45.7191 65.7922 45.6933 65.7793 45.6624C65.7793 45.6546 65.7999 45.634 65.8103 45.6211C65.8335 45.6598 65.8412 45.7036 65.8309 45.7475Z" fill="black"/>
<path d="M54.4793 45.8016C54.438 45.8093 54.3967 45.8196 54.3555 45.8299C54.3864 45.7809 54.4277 45.7732 54.4793 45.8016Z" fill="black"/>
<path d="M65.7014 46.4544C65.6833 46.4235 65.6627 46.3951 65.6523 46.3616C65.6523 46.3513 65.6781 46.3358 65.6936 46.3203C65.7168 46.3642 65.7194 46.4106 65.7014 46.4544Z" fill="black"/>
<path d="M65.5572 47.4388C65.5417 47.4079 65.5211 47.3795 65.5107 47.346C65.5107 47.3356 65.534 47.3202 65.5494 47.3047C65.5752 47.3485 65.5778 47.3924 65.5572 47.4388Z" fill="black"/>
<path d="M41.0724 40.1082C41.0337 40.0799 41.0182 40.0412 41.0285 39.9922C41.044 40.0309 41.0569 40.0696 41.0724 40.1082Z" fill="black"/>
<path d="M51.1049 32.8554C51.0584 32.8529 51.0146 32.8503 50.9707 32.8477C51.0171 32.8245 51.061 32.8271 51.1049 32.8554Z" fill="black"/>
<path d="M63.057 53.0273L62.9899 53.0454L62.9229 53.0325C62.9667 53.0299 63.0131 53.0299 63.057 53.0273Z" fill="black"/>
<path d="M63.4437 28.5942C63.3973 28.5787 63.3638 28.5478 63.3457 28.5039C63.3792 28.5323 63.4102 28.5632 63.4437 28.5942Z" fill="black"/>
<path d="M64.5691 22.8299C64.5226 22.8144 64.4917 22.786 64.4736 22.7422C64.5046 22.7706 64.5355 22.8015 64.5691 22.8299Z" fill="black"/>
<path d="M50.8136 22.6367C50.7827 22.6754 50.7414 22.696 50.6924 22.6986C50.7337 22.678 50.7724 22.6574 50.8136 22.6367Z" fill="black"/>
<path d="M23.9637 70.921C23.9714 72.2466 22.9344 73.3092 21.3556 73.3144C20.3933 73.3169 19.4646 72.2801 19.4697 71.2227C19.4749 69.9435 20.6848 68.8164 22.0547 68.8164C23.182 68.8138 23.9663 69.6804 23.9637 70.921Z" fill="black"/>
<path d="M20.1575 67.5059C20.0543 68.1661 19.5771 68.522 18.9992 68.6613C17.6861 68.9734 16.3524 68.3802 15.5527 67.2325C14.6317 65.9146 14.7297 64.4548 14.9284 62.977C14.9438 62.8609 14.9464 62.7449 14.9567 62.6288C14.9825 62.4844 15.0109 62.3374 15.0367 62.1929C15.0573 62.0562 15.078 61.9221 15.0986 61.7854C15.1244 61.6874 15.1476 61.5894 15.1734 61.4888C15.563 59.9981 16.0222 58.5177 16.3214 57.009C16.5923 55.642 16.3421 54.3086 15.4882 53.1609C14.8664 52.3253 13.3728 51.7605 11.7217 52.5729C10.4396 53.2048 9.39219 54.1333 8.60279 55.3532C7.62248 56.8671 7.92431 58.4326 8.37577 59.9955C8.52281 60.5062 8.64148 60.9601 8.09715 61.2516C7.57088 61.5327 7.05493 61.4089 6.65765 60.9782C5.74183 59.9904 5.24652 58.8014 5.12527 57.4732C4.86987 54.6517 6.2423 52.6142 8.26742 50.8346C9.38445 49.8545 10.5995 49.086 12.0313 48.8203C14.3608 48.3922 16.5098 48.761 18.1789 50.6773C19.2985 51.9642 19.8454 53.4395 20.0543 55.1314C20.2917 57.0399 19.7061 58.7731 19.2443 60.5552C18.9244 61.7829 18.7026 63.0389 18.491 64.2923C18.4136 64.7591 18.5658 65.1331 19.1179 65.3601C19.9899 65.7186 20.3175 66.5052 20.1575 67.5059Z" fill="black"/>
<path d="M67.5585 18.8995C67.2722 18.4198 67.1535 17.8369 66.8955 17.1328C67.1819 17.2798 67.3005 17.3005 67.3367 17.3649C68.2808 19.111 70.0325 19.7222 71.6939 20.4341C72.6174 20.8287 73.6003 21.0814 74.5342 21.4476C75.0656 21.6565 75.7157 21.8139 75.7157 22.6753C73.8996 22.7784 72.3672 22.1156 70.8296 21.4657C69.5036 20.9034 68.317 20.1555 67.5585 18.8995Z" fill="black"/>
<path d="M119.035 16.4944C119.028 17.2913 118.677 17.6137 117.831 17.6137C117.119 17.6137 116.603 17.299 116.636 16.3293C116.662 15.5659 117.034 15.2332 117.898 15.2383C118.788 15.2435 119.043 15.5272 119.035 16.4944Z" fill="black"/>
<path d="M126.493 46.8241C125.786 46.9608 125.255 47.033 124.739 47.1646C123.158 47.5721 121.674 47.0898 120.178 46.7055C120.067 46.6771 119.93 46.5353 119.905 46.4218C119.796 45.9472 119.727 45.4624 119.649 45.0265C121.344 44.9027 123.072 44.8124 124.793 44.6267C125.221 44.5803 125.616 44.227 126.013 44.0232C123.991 43.8324 121.971 43.6415 119.951 43.4532C119.941 43.3836 119.93 43.314 119.923 43.2443C122.051 42.5918 123.839 41.4906 124.922 39.4531C124.146 39.9173 123.413 40.477 122.587 40.8174C121.362 41.3255 120.08 41.7072 118.8 42.0734C118.573 42.1379 118.137 41.9496 117.99 41.7407C117.309 40.789 116.69 39.7935 116.063 38.8031C115.491 37.8927 115.519 37.8489 116.277 37.0726C116.597 36.745 116.853 36.353 117.124 35.979C118.189 34.4986 119.685 33.6424 121.38 33.1137C123.496 32.4508 125.314 31.3186 126.996 29.8898C127.646 29.3404 128.467 28.9484 129.269 28.6364C130.069 28.3269 131.599 29.098 132.009 29.8975C132.891 31.6178 133.889 33.2942 134.604 35.0815C135.553 37.4569 135.46 39.9612 134.73 42.3803C134.454 43.2882 133.809 44.1058 133.229 44.8898C132.053 46.4837 130.84 48.0544 129.573 49.5786C128.472 50.9094 127.161 52.0365 125.503 52.609C124.873 52.8283 124.125 52.8154 123.447 52.7535C123.091 52.7199 122.639 52.4259 122.446 52.1164C121.955 51.3324 121.579 50.4735 121.166 49.6405C121.009 49.3207 120.872 48.988 120.666 48.5289C122.827 48.7198 124.809 48.6037 126.493 46.8241Z" fill="black"/>
<path d="M188.619 117.617C188.583 117.566 188.544 117.514 188.508 117.463C188.413 117.419 188.317 117.375 188.222 117.331C188.173 117.3 188.121 117.272 188.072 117.243C187.724 117.218 187.373 117.171 187.025 117.171C172.723 117.249 158.42 117.329 144.121 117.409C143.912 117.409 143.703 117.383 143.494 117.37C143.128 117.28 143.117 117.158 143.442 116.802C143.811 115.67 144.268 114.556 144.526 113.401C144.871 111.861 145.166 110.298 145.292 108.727C145.462 106.605 144.848 104.58 144.198 102.574C143.499 100.412 142.103 98.6921 140.731 96.9512C140.352 96.4715 139.934 96.0098 139.469 95.6126C138.786 95.0272 138.058 94.4881 137.323 93.9672C136.717 93.5364 136.056 93.1831 135.445 92.755C133.936 91.7027 132.465 90.586 130.93 89.5698C129.277 88.4737 127.468 87.6742 125.567 87.1119C124.432 86.7766 123.274 86.5239 122.131 86.217C121.752 86.1164 121.496 86.0313 121.878 85.5284C122.931 84.1382 123.97 82.7275 124.883 81.2445C125.755 79.8286 126.346 78.2347 127.267 76.8549C128.593 74.8767 129.321 72.6432 130.252 70.5C130.889 69.0325 131.403 67.5082 131.893 65.9814C132.305 64.7022 132.69 63.3997 132.93 62.0767C133.144 60.9032 133.177 59.6936 133.226 58.4969C133.288 56.9391 133.373 55.3633 132.37 54.0531C133.188 53.3593 133.951 52.6681 134.759 52.0362C136.872 50.3882 138.543 48.3404 140.12 46.2049C141.409 44.4589 141.99 42.4498 142.083 40.304C142.114 39.5921 142.078 38.8571 141.931 38.1659C141.654 36.8867 141.43 35.561 140.893 34.3849C140.22 32.9071 139.219 31.584 138.425 30.1578C137.509 28.5072 136.351 27.0964 134.743 26.0828C131.72 24.1769 128.552 24.3342 125.456 25.7243C123.581 26.5677 121.886 27.8211 120.09 28.8554C119.897 28.9688 119.489 28.9792 119.334 28.8502C118.199 27.9114 117.09 26.9417 115.999 25.9539C114.892 24.9532 113.765 23.9912 112.348 23.4522C111.043 22.957 109.745 22.4257 108.409 22.0259C105.44 21.1387 102.463 20.2799 99.4677 19.501C98.0849 19.1425 96.6299 19.0754 95.242 18.7324C92.6984 18.1057 90.1031 18.018 87.5156 17.9432C85.8594 17.8942 84.1877 18.0618 82.5315 18.2192C80.5374 18.4074 78.7676 17.6621 77.0418 16.8909C75.156 16.0502 73.3708 14.985 71.5391 14.0256C71.4256 13.9662 71.2683 13.992 71.1212 13.9766C70.9019 15.0159 71.4669 15.7381 72.0912 16.3854C74.0183 18.3817 76.4046 19.6093 79.0282 20.4217C79.3403 20.5171 79.6551 20.5997 79.926 20.677C79.2114 21.9408 78.4632 23.1246 77.8596 24.3755C77.0289 26.0957 76.2679 27.8521 75.5429 29.6188C74.6607 31.7723 73.8893 33.9645 73.6133 36.2986C73.3888 38.1994 73.1231 40.0976 72.9219 42.001C72.8368 42.816 72.8652 43.6413 72.8445 44.4614C72.8445 44.7606 72.8471 45.0598 72.8471 45.359C72.8987 47.056 72.9348 48.7453 73.3372 50.414C73.781 52.258 74.6091 53.7152 76.5439 54.3445C77.9008 54.7856 79.2372 54.8346 80.1994 53.7178C80.7773 53.0447 81.074 52.0698 81.3139 51.1826C82.1549 48.0825 82.8385 44.9412 83.7285 41.8591C84.6934 38.5295 85.7511 35.2257 87.415 32.154C88.3334 30.457 89.1331 28.6903 90.1315 27.0448C90.8796 25.812 91.8212 24.6875 92.7474 23.5734C93.3433 22.8564 94.0089 22.1678 94.7518 21.6107C95.1646 21.2986 95.8199 21.1 96.3281 21.1645C97.7779 21.345 99.2071 21.6855 100.665 21.9692C100.626 22.1059 100.626 22.1884 100.587 22.2348C98.7066 24.4786 97.0607 26.8772 95.9953 29.6162C95.3039 31.3958 94.659 33.2037 94.1714 35.0478C93.6142 37.1497 93.2117 39.2955 92.8222 41.4362C92.5771 42.785 92.4662 44.1623 92.3165 45.5292C92.2392 46.2384 92.2727 46.9632 92.1411 47.6595C91.7309 49.8337 92.4842 51.621 93.9392 53.153C94.4216 53.6611 95.1543 53.8468 95.7966 53.5347C96.9988 52.9492 97.734 51.8712 98.1855 50.6667C98.8717 48.8433 99.3903 46.9554 100.069 45.1294C100.752 43.2957 101.439 41.4516 102.318 39.7108C103.213 37.9363 104.294 36.247 105.396 34.5861C106.098 33.5287 106.964 32.577 107.793 31.6098C108.306 31.0089 108.977 30.5292 109.418 29.887C110.267 28.6516 111.402 27.7721 112.643 27.0036C113.654 26.3794 113.667 26.4026 114.559 27.1351C114.719 27.2666 114.889 27.3878 115.062 27.5039C116.215 28.2931 117.371 29.0797 118.586 29.9076C117.454 30.8645 116.409 31.6872 115.096 32.0431C114.443 32.2211 113.76 32.2855 113.097 32.4248C112.679 32.5125 112.163 32.6879 112.325 33.1882C112.439 33.5416 112.888 33.9877 113.236 34.0368C115.599 34.3824 117.686 33.5699 119.598 32.2623C120.758 31.4706 121.888 30.622 122.982 29.74C123.934 28.9714 124.757 28.03 125.748 27.3234C126.625 26.6967 127.61 25.9977 128.627 25.843C130.427 25.5696 132.081 26.2169 133.492 27.4549C134.836 28.6336 135.556 30.1784 136.286 31.7465C137.207 33.7324 138.484 35.5352 138.806 37.8074C139.103 39.9093 139.126 41.9339 138.084 43.8064C137.068 45.6324 136.007 47.4532 134.767 49.127C133.686 50.5868 132.406 51.9253 131.065 53.1556C129.929 54.1975 128.58 54.9996 127.334 55.9178C127.2 56.0184 127.123 56.1963 127.02 56.3356C127.069 56.4078 127.115 56.4774 127.164 56.5471C128.464 55.9823 129.764 55.4174 130.985 54.8861C130.985 56.0364 131.065 57.13 130.964 58.2054C130.838 59.5569 130.696 60.9341 130.324 62.2314C129.246 65.984 127.817 69.6153 126.225 73.1797C126.194 73.3138 126.189 73.4608 126.124 73.5743C124.716 76.0786 123.532 78.7144 121.754 81.0046C120.678 82.3896 119.698 83.8494 118.638 85.2447C118.429 85.518 118.024 85.6367 117.74 85.8611C117.087 86.3769 116.313 86.8127 115.839 87.4627C114.719 88.9998 113.324 90.2352 111.902 91.4525C111.445 91.842 110.914 92.1721 110.367 92.4223C107.297 93.8408 104.114 94.8853 100.732 95.2541C98.2397 95.5249 95.758 95.9298 93.2607 96.0794C89.8864 96.278 86.5043 96.3477 83.1223 96.3528C81.4583 96.358 79.7841 96.1697 78.133 95.9273C76.5078 95.6874 74.9083 95.267 73.2134 94.9085C74.3975 90.2584 74.3434 85.7476 73.0844 81.1697C74.4801 82.0053 75.9583 82.3896 77.5474 82.2968L78.8089 82.289C78.9921 82.271 79.1778 82.2529 79.361 82.2349C79.4203 82.2245 79.4822 82.2142 79.5441 82.2039C79.7144 82.1704 79.8873 82.1343 80.0601 82.1007C80.1143 82.0801 80.1659 82.0569 80.22 82.0363C82.7353 81.2806 83.6821 79.3772 83.9272 76.9632C83.7285 76.0553 82.9959 75.7794 82.2271 75.586C80.0782 75.0418 77.8879 75.1295 75.7029 75.23C75.0012 75.2636 74.3072 75.4493 73.6081 75.5653C73.4172 75.6427 73.2237 75.7201 73.0328 75.7949C72.9632 75.8284 72.8961 75.8593 72.829 75.8903C72.7129 75.9677 72.5968 76.045 72.4808 76.1224C72.3363 76.2617 72.1944 76.4035 72.0499 76.5454C71.9339 76.7311 71.8152 76.9168 71.6191 77.2263C71.4592 76.8265 71.3457 76.5454 71.2322 76.2643C71.2038 76.2281 71.1625 76.1972 71.1444 76.1559C70.1641 74.054 68.9903 72.0732 67.5018 70.2833C67.2387 69.9661 67.0426 69.5844 66.8569 69.213C66.4003 68.3129 66.0081 67.3767 65.5077 66.5024C65.2497 66.0459 64.7931 65.8241 64.2229 65.6745C63.6683 65.5301 63.0311 65.8757 62.5255 65.3083C62.1282 64.8595 61.5555 64.5732 61.0834 64.1864C59.373 62.7911 57.3788 61.9425 55.3821 61.0734C54.7759 60.8103 53.9607 60.8929 53.8394 59.66C53.5995 57.2305 53.5144 54.8784 54.2315 52.5237C54.3683 52.0801 54.3992 51.5514 54.2934 51.1052C54.2315 50.8473 53.7981 50.6796 53.4963 50.4449C53.6433 50.3676 53.7826 50.2928 53.922 50.2206C53.9658 50.1845 54.0097 50.1483 54.0561 50.1122V50.1071C54.1464 50.0142 54.2341 49.9214 54.3218 49.8285C54.3734 49.7795 54.4276 49.7305 54.4792 49.6815C54.5153 49.5938 54.5514 49.5036 54.5875 49.4159C54.6469 49.274 54.7062 49.1348 54.7655 48.9929C54.7939 48.864 54.8249 48.735 54.8533 48.6061C54.683 48.6396 54.5127 48.6731 54.3425 48.7066C54.296 48.7299 54.2496 48.7531 54.2032 48.7763C53.922 48.8459 53.6408 48.9181 53.3596 48.9903H52.5108C52.4205 48.9542 52.3302 48.9207 52.2374 48.8872C52 48.7814 51.7601 48.6757 51.5202 48.5699C51.4763 48.5261 51.4299 48.4823 51.3861 48.4384C51.7188 48.3714 52.049 48.3017 52.3793 48.2347C52.4747 48.2063 52.5727 48.1779 52.6682 48.1496C52.7146 48.1496 52.7585 48.1341 52.7972 48.1083C52.8462 48.0748 52.8952 48.0412 52.9442 48.0077C53.13 47.9458 53.3157 47.8839 53.504 47.8194C53.5943 47.7885 53.6846 47.755 53.7749 47.7214C53.8239 47.7085 53.8755 47.6931 53.9245 47.6776C53.9658 47.6466 54.0097 47.6131 54.0509 47.5822C54.2909 47.4248 54.5282 47.2675 54.7681 47.1128C54.8094 47.0792 54.8481 47.0483 54.8894 47.0173C54.9874 46.7362 55.088 46.4577 55.186 46.1765C55.3176 45.8903 55.5988 45.5215 54.9152 45.6736C54.7707 45.7149 54.6237 45.7587 54.4792 45.8026C54.4379 45.8103 54.3966 45.8206 54.3554 45.8309C54.1619 45.8696 53.9684 45.9109 53.7749 45.9496L53.6356 46.0347C53.1455 46.0373 52.6501 46.0811 52.1677 46.0295C51.6569 45.9728 51.1668 45.8129 50.8727 45.1681H52.2348C52.2812 45.1294 52.3277 45.0907 52.3767 45.0546C52.4231 45.0417 52.4644 45.0314 52.5108 45.0185C52.5573 45.0211 52.6063 45.0237 52.6553 45.0263C52.7946 44.9412 52.9339 44.856 53.0732 44.7709C53.1712 44.7529 53.2667 44.7348 53.3622 44.7194C53.4086 44.6884 53.4524 44.66 53.4989 44.6291C53.5943 44.6136 53.6898 44.5981 53.7852 44.5827C53.8807 44.5517 53.9761 44.5233 54.069 44.4924C54.1154 44.4769 54.1593 44.4614 54.2057 44.446L54.4921 44.3531C54.5385 44.3351 54.5824 44.317 54.6288 44.3015C54.6727 44.2706 54.7191 44.2396 54.7655 44.2087C54.9048 44.1494 55.0467 44.0926 55.1886 44.0359C55.2841 43.9998 55.3795 43.9637 55.475 43.9302C55.5678 43.9095 55.6607 43.8915 55.7536 43.8708C55.7949 43.8425 55.8387 43.8115 55.88 43.7831L55.8852 43.7728C55.9316 43.7316 55.9806 43.6877 56.027 43.6465C56.1689 43.5536 56.3134 43.4633 56.4553 43.3731C56.4527 43.3318 56.4501 43.2931 56.4501 43.2519C56.2154 43.2622 55.978 43.2725 55.7407 43.2802C55.3692 43.2699 54.9951 43.2596 54.6237 43.2467C54.5746 43.2493 54.5282 43.2519 54.4792 43.2544C54.3889 43.2544 54.2986 43.2544 54.2057 43.257C53.8239 43.012 53.4421 42.7696 53.0603 42.5246C53.019 42.4755 52.9778 42.4265 52.9365 42.3775C52.9236 42.3311 52.9107 42.2821 52.8978 42.2357C52.8617 42.1454 52.8281 42.0526 52.7946 41.9623C52.7894 41.8205 52.7869 41.676 52.7843 41.5316C52.8823 41.5316 52.9803 41.529 53.0784 41.5264C53.1738 41.6709 53.2719 41.8127 53.3673 41.9571C53.5969 42.0423 53.8291 42.1299 54.0613 42.2176C54.3889 42.2176 54.7165 42.2151 55.0442 42.2151C55.2789 42.1661 55.5111 42.1171 55.7433 42.0681L56.0296 42.0758C56.0812 42.0371 56.1328 42.001 56.1818 41.9623C56.2747 41.9443 56.365 41.9288 56.4553 41.9107C56.5043 41.8798 56.5507 41.8488 56.5972 41.8205C56.69 41.8076 56.7829 41.7947 56.8758 41.7818C56.9661 41.7457 57.0564 41.7096 57.1441 41.6734C57.2834 41.5729 57.4794 41.5032 57.5491 41.3665C57.9515 40.5902 58.323 39.801 58.7048 39.017C58.7539 38.968 58.7977 38.919 58.8467 38.87C58.8803 38.8236 58.9138 38.7745 58.9499 38.7281C58.9602 38.6791 58.9731 38.6327 58.9834 38.5863L59.0841 38.447C59.097 38.398 59.1099 38.349 59.1228 38.2974C59.1537 38.2536 59.1873 38.2097 59.2182 38.1659C59.2311 38.0653 59.2466 37.9647 59.2595 37.8641C59.2956 37.779 59.3291 37.6913 59.3653 37.6062C59.3782 37.5546 59.3911 37.5031 59.4039 37.4515C59.4401 37.3612 59.4762 37.2709 59.5123 37.1807C59.6619 36.8015 59.8116 36.4198 59.9638 36.0381C59.9999 35.9504 60.036 35.8628 60.0747 35.7751C60.1314 35.6306 60.1908 35.4888 60.2475 35.3444C60.2759 35.3005 60.3043 35.2592 60.3352 35.2154C60.3507 35.1587 60.3662 35.1019 60.3817 35.0452C60.4178 34.9626 60.4539 34.8775 60.4874 34.7924C61.0653 33.9387 61.6406 33.0825 62.2159 32.2288C62.3191 32.3784 62.4223 32.528 62.5255 32.6776C62.5074 32.7214 62.4971 32.7653 62.4945 32.8091C62.4378 33 62.381 33.1908 62.3242 33.3817C62.2907 33.4358 62.2572 33.4874 62.2236 33.5416C61.865 34.8002 61.509 36.0588 61.1505 37.3199C61.1556 37.4231 61.1633 37.5263 61.1685 37.6294C61.1143 37.7584 61.0602 37.8899 61.0086 38.0215C61.0137 38.1246 61.0215 38.2278 61.0292 38.3309L60.8357 38.7255C60.8306 38.9138 60.8254 39.1021 60.8202 39.2904C60.779 39.5225 60.7351 39.7572 60.6938 39.9893C60.6964 40.0383 60.7016 40.0847 60.7067 40.1337C60.6551 40.5541 60.6035 40.9745 60.5545 41.3949C60.5571 41.4439 60.5597 41.4903 60.5623 41.5393C60.5107 41.8669 60.4617 42.1944 60.4126 42.522C60.4152 42.5684 60.4178 42.6174 60.423 42.6638C60.3714 43.0842 60.3223 43.5072 60.2733 43.9276C60.2785 44.072 60.2837 44.219 60.2888 44.3634C60.2346 44.4692 60.1366 44.5749 60.134 44.6833C60.1185 45.8645 60.1134 47.0431 60.1211 48.2243C60.1211 48.3378 60.2088 48.4513 60.2579 48.5648C60.263 48.7066 60.2682 48.8485 60.2733 48.9878C60.4539 49.6919 60.6371 50.3934 60.8177 51.0949C60.957 51.3322 61.0963 51.5669 61.2356 51.8016C61.4678 52.0363 61.7025 52.2684 61.9373 52.5031H61.9399C62.0792 52.5959 62.2185 52.6888 62.3604 52.779L62.3655 52.7842C62.4094 52.8203 62.4532 52.8564 62.4945 52.8925C62.639 52.9389 62.7809 52.9879 62.9227 53.0344C62.9666 53.0318 63.013 53.0318 63.0569 53.0292C63.2478 53.0292 63.4387 53.0292 63.627 53.0292C63.7199 52.9957 63.8128 52.9621 63.9031 52.9286H63.9056C63.9469 52.8796 63.9882 52.8332 64.0295 52.7842C64.1275 52.6913 64.2281 52.5985 64.3261 52.5031C64.3777 52.4128 64.4267 52.3199 64.4783 52.2297C64.6151 51.8067 64.7518 51.3863 64.8911 50.9633C64.9195 50.9169 64.9504 50.8705 64.9788 50.8267C64.9969 50.6848 65.0149 50.543 65.0304 50.4011C65.0614 50.3547 65.0898 50.3108 65.1181 50.2644C65.1362 50.071 65.1517 49.8801 65.1697 49.6893C65.1929 49.648 65.2162 49.6067 65.242 49.5655C65.3477 48.8562 65.4535 48.1496 65.5567 47.4429C65.5412 47.4119 65.5206 47.3836 65.5102 47.35C65.5102 47.3397 65.5335 47.3242 65.5489 47.3088C65.598 47.0251 65.6496 46.7414 65.7011 46.4577C65.6831 46.4267 65.6625 46.3983 65.6521 46.3648C65.6521 46.3545 65.6779 46.339 65.6934 46.3236C65.7373 46.1353 65.7837 45.9444 65.8301 45.7536C65.8121 45.7252 65.7914 45.6994 65.7785 45.6685C65.7785 45.6607 65.7992 45.6401 65.8095 45.6272C65.8301 45.3899 65.8534 45.1526 65.874 44.9154C65.9024 44.8715 65.9307 44.8251 65.9617 44.7813C65.9772 44.5904 65.9952 44.3996 66.0133 44.2087C66.0494 44.1184 66.083 44.0256 66.1191 43.9353C66.132 43.7935 66.1423 43.6516 66.1552 43.5098C66.1836 43.4659 66.2145 43.4195 66.2429 43.3731C66.3538 42.7618 66.4648 42.148 66.5757 41.5342C66.6092 41.4439 66.6402 41.3536 66.6737 41.266C66.6892 41.2169 66.7047 41.1705 66.7202 41.1215C66.7511 40.9823 66.7821 40.843 66.8156 40.7037L66.862 40.5644C66.8956 40.4226 66.9291 40.2807 66.9627 40.1389C66.973 40.0847 66.9833 40.0331 66.9962 39.9816C67.0297 39.8939 67.0633 39.8062 67.0994 39.7159C67.2077 39.3419 67.3135 38.9654 67.4219 38.5889C67.4528 38.5424 67.4838 38.496 67.5121 38.4522C67.5302 38.3567 67.5457 38.2613 67.5612 38.1659C67.5921 38.1195 67.6231 38.0756 67.654 38.0292C67.8088 37.5082 67.9636 36.9872 68.121 36.4663C68.1545 36.3786 68.1906 36.2883 68.2242 36.2006C68.2371 36.149 68.2474 36.0974 68.2603 36.0433C68.2964 35.9556 68.3325 35.8679 68.3686 35.7776C68.4744 35.4475 68.5802 35.12 68.6859 34.7898L68.7943 34.5113C68.8046 34.4623 68.8149 34.4133 68.8252 34.3643C68.8614 34.2715 68.8975 34.1812 68.9336 34.0909C68.9903 33.8975 69.0471 33.7015 69.1039 33.508C69.1374 33.4229 69.1709 33.3352 69.2045 33.2501C69.2174 33.1934 69.2303 33.1392 69.2432 33.0825C69.2819 32.9484 69.3206 32.8168 69.3593 32.6853C69.416 32.5383 69.4702 32.3913 69.5244 32.2443C69.563 32.1566 69.5992 32.0689 69.6353 31.9812C69.7411 31.6537 69.8468 31.3261 69.9552 30.9986C69.9861 30.9522 70.0197 30.9032 70.0506 30.8567C70.0661 30.8129 70.0816 30.7665 70.0971 30.7226C70.128 30.6272 70.159 30.5318 70.1925 30.4363C70.2054 30.3822 70.2157 30.3306 70.2286 30.2764C70.2647 30.1887 70.3009 30.1011 70.337 30.0134C70.3963 29.9154 70.4557 29.8174 70.5124 29.7194C70.5459 29.6781 70.5769 29.6342 70.6079 29.5904C70.8581 29.0282 71.1083 28.4633 71.3586 27.8985C71.3895 27.8547 71.4205 27.8082 71.4514 27.7644C71.4669 27.7128 71.4824 27.6612 71.4979 27.6097C71.5263 27.5684 71.5546 27.5271 71.583 27.4833C71.6501 27.3414 71.7146 27.197 71.7816 27.0551C71.8126 26.9649 71.8436 26.872 71.8745 26.7818C72.0112 26.5161 72.1428 26.253 72.2795 25.99C72.5324 25.5051 72.8058 25.0202 72.3079 24.5225C72.2744 24.4889 72.2408 24.458 72.2073 24.4271C71.921 24.4245 71.6372 24.4245 71.3534 24.4245C71.2605 24.458 71.1677 24.4889 71.0748 24.5225C70.9845 24.5715 70.8916 24.6179 70.8013 24.6669C70.7497 24.6798 70.7007 24.6953 70.6517 24.7108C70.6053 24.7417 70.5563 24.7726 70.5098 24.8036C70.417 24.8474 70.3241 24.8964 70.2312 24.9429H69.9629L69.8159 24.8423C69.6301 24.8294 69.4444 24.8139 69.2586 24.801C69.2096 24.7701 69.1606 24.7365 69.1116 24.703C68.833 24.6901 68.5544 24.6746 68.2757 24.6617C68.2267 24.6282 68.1777 24.5947 68.1287 24.5612C67.28 24.2207 66.4312 23.8803 65.5851 23.5424C65.5412 23.5063 65.4999 23.4728 65.4561 23.4393C65.3555 23.3799 65.2549 23.3206 65.1542 23.2613C65.113 23.2278 65.0743 23.1942 65.0356 23.1607C64.8782 23.0524 64.7234 22.9441 64.5686 22.8332C64.5222 22.8177 64.4912 22.7893 64.4732 22.7455C63.1265 21.8712 62.2391 20.6306 61.6174 19.176C61.5839 19.0857 61.5477 18.9981 61.5116 18.9078C61.411 18.8175 61.3104 18.7298 61.1169 18.557V20.0245C61.2227 20.9375 61.4291 21.8118 62.0895 22.5082C62.2726 22.7584 62.4558 23.0085 62.639 23.2587C62.9176 23.545 63.1988 23.8287 63.4774 24.115C63.5754 24.2027 63.6735 24.2929 63.7689 24.3832C63.9572 24.5199 64.143 24.6592 64.3313 24.7959L64.3365 24.801C64.4758 24.8939 64.6125 24.9893 64.7492 25.0821H64.7544C64.9866 25.224 65.2187 25.3658 65.4509 25.5077H65.4535C65.4999 25.5438 65.5438 25.5799 65.5902 25.616C65.6367 25.6289 65.6857 25.6392 65.7321 25.6495C66.2455 25.843 66.7589 26.0364 67.2748 26.2273C67.3238 26.2582 67.3703 26.2892 67.4193 26.3201C67.654 26.3382 67.8862 26.3562 68.1184 26.3717C68.1674 26.413 68.2164 26.4542 68.2654 26.4929C68.2267 26.5135 68.1855 26.5239 68.1416 26.5213C67.6411 26.9958 67.1407 27.4678 66.6428 27.9398L66.2945 28.0404C66.1062 28.0533 65.9179 28.0662 65.7295 28.079C65.6805 28.1126 65.6341 28.1461 65.5851 28.1771C65.3529 28.2338 65.1207 28.2905 64.8885 28.3447C64.8421 28.3834 64.7957 28.4221 64.7492 28.4608C64.7028 28.4788 64.6563 28.4969 64.6099 28.5149C64.4216 28.7058 64.2333 28.8992 64.0449 29.0901C63.9908 29.0694 63.9366 29.0488 63.8798 29.0282C63.8437 28.9972 63.8076 28.9663 63.7689 28.9353C63.6606 28.8218 63.5522 28.7109 63.4439 28.6C63.3974 28.5845 63.3639 28.5536 63.3458 28.5098C62.9253 28.257 62.5048 28.0068 62.0843 27.7567C62.0353 27.7077 61.9889 27.6638 61.9399 27.6148H61.9373C61.8908 27.5761 61.8444 27.5426 61.798 27.5065C61.6999 27.4523 61.6045 27.3956 61.5065 27.3388C61.4626 27.3027 61.4213 27.2692 61.3775 27.2331C60.8589 26.8927 60.3404 26.5522 59.8219 26.2118C59.778 26.1654 59.7316 26.1215 59.6851 26.0751H59.6826C59.6387 26.0364 59.5923 26.0003 59.5484 25.9642C59.4994 25.9539 59.4478 25.9436 59.3988 25.9307C59.3524 25.8868 59.3085 25.8404 59.2621 25.794H59.2595C59.2156 25.7553 59.1718 25.7166 59.1253 25.6805C58.8467 25.5283 58.5681 25.3762 58.2895 25.224C58.2379 25.1827 58.1863 25.1415 58.1373 25.1002C57.4382 24.7649 56.7365 24.4322 56.0374 24.0995C55.9883 24.0505 55.9393 24.0041 55.8929 23.9577C55.8 23.9112 55.7072 23.8648 55.6117 23.8184H55.6091C55.5601 23.7823 55.5163 23.7487 55.4698 23.7152C55.1835 23.5631 54.8997 23.4109 54.6133 23.2613C54.5721 23.2278 54.5282 23.1968 54.4869 23.1633C54.0174 23.0085 53.5453 22.8512 53.0758 22.6965C52.9829 22.663 52.8926 22.6294 52.8023 22.5985C52.1393 22.6114 51.4763 22.6243 50.8133 22.6372C50.7824 22.6758 50.7411 22.6965 50.6921 22.6991C50.5502 22.7068 50.4057 22.7145 50.2613 22.7248C50.22 22.7635 50.1787 22.7996 50.1375 22.8383C50.0833 22.8538 50.0317 22.8693 49.9775 22.8848C49.9336 22.9157 49.8898 22.9466 49.8434 22.9776C49.5647 23.122 49.2861 23.2613 49.0075 23.4031L49.0024 23.4135C48.8605 23.5012 48.7186 23.5914 48.5767 23.6791C48.5277 23.6946 48.4812 23.7101 48.4322 23.723C48.3832 23.7539 48.3368 23.7874 48.2878 23.8184C48.0582 24.0118 47.8286 24.2078 47.5964 24.4013C47.1836 24.8191 46.7683 25.2395 46.3555 25.6599L46.34 25.6856C46.2472 25.8172 46.1569 25.9461 46.064 26.0777L46.0537 26.0957C45.5868 26.9339 45.1198 27.7696 44.6529 28.6052C44.6064 28.7006 44.56 28.7935 44.5136 28.8889C44.284 29.4021 44.0518 29.9154 43.8196 30.4312C43.8119 30.4776 43.8041 30.524 43.7938 30.5704C43.3346 31.5557 42.878 32.5409 42.4188 33.5235C42.4085 33.5699 42.3982 33.6164 42.3878 33.6628C42.3595 33.7092 42.3285 33.7531 42.3001 33.7995C42.2846 33.9001 42.2666 34.0006 42.2511 34.1012C42.2227 34.1425 42.1944 34.1812 42.166 34.2199C42.1634 34.3205 42.1608 34.4236 42.1582 34.5268C42.0086 35.0813 41.859 35.6384 41.7094 36.1955C41.7119 36.2445 41.7145 36.2909 41.7145 36.3373C41.6655 36.5256 41.6165 36.7113 41.5701 36.8995C41.5701 36.946 41.5726 36.995 41.5752 37.0414C41.5262 37.2297 41.4772 37.4154 41.4282 37.6011C41.4282 37.6501 41.4308 37.6965 41.4333 37.7455C41.2914 38.4006 41.1496 39.0557 41.0077 39.7108C41.0154 39.8062 41.0232 39.9016 41.0283 39.997C41.0438 40.0357 41.0567 40.0744 41.0722 40.1131C41.0541 40.2188 41.0335 40.322 41.0154 40.4252C40.9638 40.7037 40.9148 40.9797 40.8658 41.2582V42.3827C40.9071 42.6432 40.8916 42.9295 40.9948 43.1642C41.3946 44.0797 41.8306 44.9798 42.2537 45.8851L42.2589 45.8928C42.6355 46.4886 43.0121 47.0844 43.3888 47.6802L43.4043 47.7163C43.492 47.8504 43.5771 47.9845 43.6648 48.1186L43.6777 48.1392C43.7654 48.2759 43.8557 48.41 43.9434 48.5442L43.9563 48.5622C44.1395 48.8382 44.3227 49.1116 44.5084 49.3875L44.5187 49.4056C44.6555 49.5913 44.7896 49.7795 44.9237 49.9652L44.9289 49.973C45.3649 50.4372 45.7183 51.0562 46.2497 51.3373C47.2533 51.8686 48.3574 52.2065 49.4203 52.6243L49.5596 52.6165C50.0755 52.5804 50.5915 52.5443 51.1074 52.5082C51.1565 52.5005 51.2029 52.4902 51.2493 52.4824C51.2958 52.4437 51.3422 52.4051 51.3886 52.3664C51.8452 52.0698 51.7885 51.6571 51.4583 51.3837C50.8778 50.9092 50.2226 50.5249 49.5983 50.1019C49.5389 50.0761 49.4822 50.0503 49.4254 50.022C49.3326 50.0065 49.2423 49.9884 49.1494 49.973L49.0024 49.8724C48.7728 49.8105 48.5432 49.7486 48.3161 49.6867C48.262 49.6403 48.2104 49.5913 48.1588 49.5448C47.728 49.1735 47.2997 48.8046 46.8715 48.4333C46.7889 48.3249 46.7064 48.2166 46.6238 48.1057C46.4897 47.8916 46.3607 47.6724 46.2188 47.4609C45.2178 46.0012 44.2143 44.544 43.2134 43.0842C43.1798 43.0094 43.1463 42.9346 43.1153 42.8624C43.0766 42.7489 43.0405 42.638 43.0044 42.5246C42.9425 42.4214 42.8806 42.3182 42.8212 42.2176C42.8109 42.0345 42.8006 41.854 42.7903 41.6734C42.7542 41.4774 42.7181 41.284 42.6819 41.088V38.8983C42.7155 38.8416 42.7516 38.7849 42.7851 38.7281C42.7954 38.5476 42.8058 38.3645 42.8161 38.1814C42.8496 38.1298 42.8832 38.0782 42.9167 38.0266C42.9296 37.7971 42.9425 37.5675 42.958 37.338C42.9889 37.2864 43.0225 37.2348 43.056 37.1832C43.1669 36.6339 43.2779 36.082 43.3862 35.53C43.4223 35.4243 43.4584 35.3186 43.492 35.2154C43.5513 35.0349 43.6081 34.8569 43.6648 34.6789C43.6906 34.6248 43.719 34.5706 43.7448 34.5165L44.511 32.8529C44.5445 32.7962 44.5781 32.7395 44.6116 32.6827C44.6606 32.6647 44.6735 32.6337 44.6555 32.5873C44.6942 32.5254 44.7303 32.4635 44.769 32.399L45.7673 30.5808C45.8009 30.5318 45.8318 30.4828 45.8654 30.4338C45.9144 30.4105 45.9299 30.3744 45.917 30.3229C45.9557 30.2635 45.9969 30.2068 46.0356 30.1475C46.2549 29.8199 46.5 29.5053 46.6883 29.1597C47.7305 27.2305 49.1855 25.7527 51.2493 24.9248C51.2958 24.9222 51.3396 24.9222 51.3861 24.9197C51.4351 24.9222 51.4815 24.9248 51.5279 24.9274C51.7627 24.9248 51.9975 24.9248 52.2322 24.9248C52.2812 24.9222 52.3277 24.9197 52.3741 24.9197C52.4205 24.9197 52.4644 24.9145 52.5108 24.9119C52.7249 24.9764 52.9417 25.0409 53.1584 25.1079C53.2228 25.1389 53.2899 25.1724 53.3544 25.2059L53.3957 25.2498L53.455 25.2446C53.5144 25.2782 53.5763 25.3143 53.6356 25.3478C54.1051 25.5902 54.5721 25.8327 55.039 26.0725C55.088 26.1112 55.1344 26.1499 55.1835 26.1886C55.2325 26.1886 55.2841 26.1886 55.3331 26.1912C55.4234 26.2376 55.5163 26.284 55.6091 26.3304C55.7278 26.3459 55.8465 26.3588 55.9651 26.3743C56.0322 26.4026 56.0993 26.431 56.1663 26.4594C56.334 26.5239 56.5043 26.5883 56.6746 26.6528C56.7391 26.6863 56.8061 26.7199 56.8706 26.7534C57.6162 27.1377 58.3591 27.522 59.1047 27.9062L59.2595 28.0068C59.8503 28.306 60.441 28.6052 61.0318 28.9044C61.0989 28.9353 61.1633 28.9663 61.2304 28.9998L61.2794 29.041L61.3439 29.0359C61.3981 29.0668 61.4549 29.0978 61.509 29.1287C62.0611 29.4202 62.6106 29.7142 63.1601 30.0056C63.1343 30.1036 63.1085 30.1991 63.0827 30.2945C61.6896 31.829 60.294 33.3636 58.8777 34.9214C58.5397 34.8002 58.1321 34.6532 57.7245 34.5061C57.6755 34.4675 57.6265 34.4314 57.5801 34.3952C57.5543 34.3462 57.5181 34.3333 57.4691 34.354C57.4124 34.3256 57.3556 34.2972 57.3014 34.2663C57.1312 34.1992 56.9609 34.1322 56.7906 34.0651C56.7262 34.0342 56.6617 34.0032 56.5946 33.9723C56.4269 33.9104 56.2592 33.8459 56.0915 33.784C55.6478 33.6344 55.2067 33.4848 54.763 33.3352C53.6898 33.2089 52.614 33.0825 51.5408 32.9561C51.4918 32.9252 51.4428 32.8916 51.3938 32.8581H51.1049C51.0584 32.8555 51.0146 32.853 50.9707 32.8504C50.7334 32.8994 50.496 32.9484 50.2613 32.9974C50.1916 33.0257 50.1245 33.0541 50.0575 33.0825C49.3197 33.294 48.863 33.8021 48.5664 34.4829C48.5328 34.5371 48.4993 34.5913 48.4658 34.6454C48.4193 34.6712 48.4064 34.7099 48.4245 34.7615C48.3961 34.8156 48.3652 34.8698 48.3368 34.924C48.2852 35.071 48.2336 35.2154 48.182 35.3598C48.1536 35.4527 48.1227 35.5429 48.0943 35.6332C48.0272 35.8705 47.9601 36.1052 47.8905 36.3425C47.777 36.7164 47.6609 37.0878 47.5448 37.4618C47.5087 37.5856 47.47 37.7094 47.4339 37.8332C47.4081 37.8951 47.3823 37.957 47.3565 38.0163C47.3281 38.1272 47.2997 38.2355 47.2739 38.3438C47.2455 38.4238 47.2197 38.5037 47.1914 38.5837C47.1785 38.6585 47.163 38.7307 47.1501 38.8055C47.1269 38.87 47.1036 38.9345 47.083 38.9989C47.0263 39.2852 46.9695 39.5741 46.9127 39.8603C46.8586 40.304 46.7528 40.7501 46.7605 41.1937C46.7734 41.9623 46.856 42.7309 46.9102 43.4994C46.9385 43.6413 46.9643 43.7857 46.9927 43.9276C47.0108 44.0204 47.0288 44.1133 47.0443 44.2061C47.0959 44.3944 47.1449 44.5852 47.1939 44.7761C47.2249 44.8483 47.2559 44.9231 47.2868 44.9953C47.3049 45.0624 47.3255 45.132 47.3436 45.1991C47.3719 45.2635 47.4029 45.328 47.4313 45.3951C47.4932 45.6091 47.5551 45.8258 47.617 46.0399C47.6531 46.0914 47.6918 46.143 47.728 46.192C48.3677 47.9897 49.7918 49.0007 51.3886 49.8311C51.4841 49.8724 51.577 49.9162 51.6698 49.9575C52.1264 50.2386 52.5831 50.5172 53.0861 50.8292C51.0326 53.478 50.8288 56.6038 50.9991 59.8767C50.4625 59.7993 50.011 59.7323 49.5622 59.6652C49.4151 59.6446 49.2706 59.6239 49.1236 59.6033L44.9289 59.7039C44.7844 59.7374 44.64 59.771 44.4955 59.8045C43.768 59.967 43.0276 60.0882 42.313 60.2945C38.9929 61.2436 36.2738 63.0928 34.2048 65.855C32.5332 68.0859 31.1943 70.4613 30.9801 73.3525C30.8511 75.083 30.4771 76.793 30.3249 78.5235C30.2604 79.256 30.539 80.0117 30.5648 80.7596C30.6396 82.8899 31.0936 84.9481 31.7102 86.9726C32.6776 90.1501 34.1403 93.0877 36.07 95.7932C36.1577 95.8963 36.2454 95.9995 36.3331 96.1026C36.3899 96.1826 36.4467 96.2625 36.5034 96.3425C36.586 96.4508 36.6711 96.5591 36.7536 96.6649C36.813 96.7448 36.8697 96.8222 36.9291 96.8996C37.0142 97.0079 37.1019 97.1136 37.187 97.222C37.2902 97.3483 37.3908 97.4747 37.4915 97.6011C37.6204 97.7584 37.752 97.9132 37.881 98.0705C38.1235 98.3413 38.366 98.6121 38.6059 98.8829C38.7452 99.0325 38.8819 99.1821 39.0213 99.3291C39.2534 99.5638 39.4856 99.7985 39.7178 100.033C39.9603 100.263 40.2028 100.495 40.4453 100.727C42.393 102.61 44.6193 104.103 47.0495 105.31C45.5996 107.164 44.5523 109.184 43.6261 111.286C42.6845 113.424 42.522 115.711 42.1918 117.994C42.0963 118.002 42.006 118.012 41.9157 118.015C31.7773 118.164 21.6388 118.303 11.5004 118.474C9.90606 118.499 8.31693 118.67 6.72264 118.75C5.42502 118.812 4.12224 118.814 2.82462 118.892C2.30866 118.92 1.78497 119.026 1.2974 119.191C1.07812 119.268 0.763387 119.624 0.802084 119.771C0.866578 120.024 1.14777 120.341 1.39285 120.4C2.07649 120.563 2.78334 120.653 3.48504 120.689C5.01999 120.767 6.55495 120.813 8.08991 120.836C11.4152 120.885 14.7405 120.911 18.0658 120.944C18.8166 120.965 19.5647 120.986 20.3128 121.006C24.0483 121.022 27.7838 121.037 31.5193 121.053C32.4712 121.063 33.4206 121.076 34.3699 121.089C36.0133 121.097 37.6566 121.102 39.2973 121.11H42.3311C42.4756 121.69 42.6407 122.309 42.7877 122.93C43.2959 125.063 44.5265 126.608 46.4819 127.611C47.5164 128.143 48.4812 128.816 49.5235 129.329C50.834 129.976 52.1626 130.619 53.5402 131.091C55.1267 131.632 56.7855 131.49 58.3953 131.101C59.68 130.789 60.975 130.456 62.203 129.976C64.4603 129.092 66.4286 127.787 67.7727 125.682C67.9791 125.362 68.3815 125.174 68.673 124.903C68.8897 124.705 69.0755 124.475 69.3283 124.199C69.6121 124.692 69.9036 125.205 70.2028 125.713C71.3457 127.648 72.4498 129.608 73.6468 131.506C74.9238 133.528 76.6755 133.75 78.6309 133.314C79.0359 133.224 79.3507 132.726 79.7505 132.378C80.122 132.79 80.5038 133.332 80.9991 133.734C82.1007 134.629 83.1894 135.581 84.4199 136.269C85.3048 136.765 86.3883 137.002 87.4124 137.128C89.3163 137.363 91.2382 137.433 93.155 137.572C93.2478 137.577 93.3433 137.582 93.4362 137.585H100.329C100.422 137.587 100.515 137.587 100.608 137.587C102.741 137.244 104.901 137.012 107.003 136.535C111.03 135.617 115.052 134.658 119.02 133.518C121.042 132.937 123.044 132.115 124.871 131.078C129.024 128.731 133.087 126.221 137.132 123.694C138.412 122.894 139.516 121.811 140.718 120.883C140.94 120.71 141.244 120.555 141.513 120.552C145.632 120.514 149.755 120.503 153.875 120.488C154.602 120.491 155.33 120.491 156.06 120.493C163.74 120.452 171.42 120.413 179.097 120.369C181.932 120.354 184.765 120.338 187.597 120.302C188.351 120.292 188.851 119.892 189.12 119.17C189.367 118.502 188.998 118.069 188.619 117.62V117.617ZM70.3215 26.872C70.3215 26.872 70.306 26.8669 70.2957 26.8591C70.306 26.8643 70.3138 26.8695 70.3215 26.872ZM41.3688 97.142C39.0935 94.9085 37.2541 92.3552 35.794 89.5208C34.4835 86.9778 33.645 84.2698 33.1342 81.4766C32.6467 78.8047 33.0439 76.1559 33.7714 73.5639C34.6718 70.3581 36.3177 67.6243 38.9748 65.561C40.9251 64.0471 43.1282 63.1882 45.5971 62.8865C47.4003 62.6673 49.1571 62.8762 50.9269 63.067C51.3757 63.1135 51.7446 63.2424 51.9588 63.7505C52.2941 64.5526 52.9313 64.9214 53.8342 64.6919C53.9323 64.483 54.0329 64.2637 54.1438 64.0239C56.7158 65.0065 58.9757 66.4173 61.0369 68.1556C61.2304 68.3206 61.4265 68.6972 61.3697 68.9087C60.9647 70.4716 61.5348 71.8076 62.2494 73.1229C62.4816 73.3499 62.6983 73.5975 62.9511 73.8012C64.014 74.6678 64.8421 74.6626 66.0984 73.7703C67.2593 75.4183 68.2216 77.1721 68.9542 79.0497C69.3051 79.9524 69.674 80.8602 69.9165 81.7938C70.6672 84.6979 71.1651 87.6381 70.7678 90.653C70.6543 91.5222 70.4866 92.3862 70.3138 93.2476C70.2106 93.7686 69.9139 93.9336 69.3593 93.7866C66.4596 93.0206 63.9005 91.5738 61.4729 89.8741C60.3997 89.121 59.3601 88.3164 58.3385 87.4936C55.671 85.3401 54.0355 82.663 53.7336 79.1425C53.5969 77.5383 53.86 76.0657 54.216 74.5569C54.3786 73.7574 54.6262 72.9656 54.6881 72.1583C54.781 70.9616 54.781 69.7546 54.7372 68.5528C54.7217 68.0782 54.3812 67.7997 53.793 68.0731C53.793 68.9938 53.7981 69.9506 53.7904 70.9049C53.7904 71.1138 53.7775 71.3279 53.7336 71.529C53.2873 73.6568 52.7791 75.7742 52.3973 77.9123C52 80.1329 52.0594 82.3638 52.952 84.4684C53.8446 86.5755 55.0906 88.4402 56.9171 89.8999C59.2646 91.7723 61.6612 93.5725 64.4164 94.8002C65.9127 95.4682 67.4941 95.9479 69.0832 96.5308C68.0565 98.7617 66.4364 100.593 64.3132 101.97C62.5177 103.133 60.5442 103.835 58.3978 103.966C57.1441 104.044 55.8594 104.245 54.6366 104.062C53.0732 103.83 51.5202 103.373 50.0265 102.831C46.7012 101.627 43.8815 99.6076 41.3688 97.142ZM66.2068 123.415C64.5196 125.571 62.3475 126.874 59.7342 127.477C58.403 127.784 57.0409 128.099 55.6865 128.13C53.7698 128.171 52.0981 127.253 50.4754 126.314C50.3774 126.26 50.3026 126.043 50.3258 125.922C50.9836 122.412 51.8066 118.953 53.3493 115.699C54.3373 113.617 55.7716 111.92 57.6213 110.584C58.0625 110.267 58.679 110.195 58.9989 110.084C60.7867 110.259 62.0637 110.667 62.8118 112.225C63.7818 114.244 64.9143 116.186 65.9823 118.156C66.0933 118.36 66.2326 118.554 66.3874 118.729C66.9265 119.345 67.2206 119.97 67.1897 120.877C67.1561 121.901 66.8311 122.616 66.2068 123.415ZM76.371 131.354C75.7803 131.021 75.2901 130.412 74.9057 129.827C74.204 128.762 73.6288 127.614 72.9735 126.515C71.3147 123.727 69.6198 120.96 67.9739 118.164C66.0468 114.886 64.143 111.593 62.2598 108.289C61.976 107.794 61.8547 107.203 61.7154 106.819C63.32 105.795 64.6899 104.923 66.0546 104.044C66.6324 103.672 66.9136 103.75 67.2645 104.343C68.6008 106.62 69.9603 108.885 71.2915 111.167C72.0319 112.439 72.6717 113.775 73.4662 115.013C74.5987 116.782 75.7751 118.533 77.0418 120.209C77.7332 121.128 77.9834 122.159 78.0711 123.199C78.2646 125.468 78.3084 127.751 78.3858 130.031C78.4271 131.23 77.4158 131.942 76.371 131.354ZM102.032 135.635C101.973 135.643 101.911 135.65 101.849 135.658C101.624 135.687 101.397 135.718 101.173 135.746C101.031 135.754 100.889 135.759 100.75 135.767C99.4367 135.764 98.1262 135.761 96.8131 135.759C96.6248 135.756 96.4364 135.754 96.2481 135.751C94.2772 135.563 92.3037 135.395 90.3353 135.184C89.2183 135.062 88.109 134.887 87.0048 134.701C85.8646 134.511 84.91 133.925 84.0355 133.193C81.5099 131.075 80.0111 128.37 79.3687 125.154C79.1082 123.851 79.1495 122.562 79.5648 121.334C79.7763 120.71 80.2665 120.148 80.7231 119.645C81.399 118.907 82.1342 118.213 82.8978 117.568C83.1765 117.334 83.6176 117.292 83.9865 117.169C85.9445 116.511 87.8948 115.83 89.8632 115.206C90.7274 114.93 91.6252 114.755 92.5152 114.564C92.6622 114.533 92.8635 114.631 93.0105 114.719C97.0814 117.127 99.6534 120.839 101.764 124.916C102.287 125.925 102.491 127.098 102.863 128.187C103.105 128.898 103.433 129.582 103.642 130.301C104.021 131.614 104.336 132.945 104.689 134.265C104.759 134.523 104.888 134.768 105.032 135.132C103.99 135.305 103.012 135.47 102.032 135.635ZM111.964 103.177C109.807 104.931 107.354 106.195 104.862 107.381C101.913 108.787 98.993 110.272 95.9695 111.492C94.0837 112.253 92.0302 112.599 90.0438 113.101C89.8374 113.156 89.5846 113.024 89.3524 112.978C89.5227 112.789 89.6568 112.506 89.8684 112.423C90.9751 112.003 92.0921 111.59 93.2272 111.252C96.2481 110.352 98.9569 108.766 101.766 107.404C103.951 106.344 106.134 105.284 108.319 104.229C110.228 103.309 112.044 102.238 113.736 100.931C113.424 101.906 112.715 102.563 111.964 103.177Z" fill="black"/>
<path d="M114.516 2.44631C114.087 1.63132 114.5 0.934961 115.553 0.558413C117.258 -0.0502529 119.053 -0.225631 120.815 0.357244C122.58 0.940119 123.313 2.78933 122.487 4.49411C121.834 5.83782 120.743 6.80756 119.817 7.92431C119.105 8.78314 118.525 9.69872 119.11 10.9212C119.453 11.6434 119.157 12.3681 118.501 12.7988C117.944 13.1624 117.088 13.0696 116.567 12.5486C116.272 12.2572 116.025 11.9142 115.757 11.5944C115.718 11.4963 115.677 11.4009 115.638 11.3055C115.643 10.4596 115.651 9.61619 115.656 8.77025C115.689 8.67224 115.72 8.57682 115.754 8.47881C116.118 7.17895 116.956 6.20921 117.903 5.29105C118.481 4.73139 118.958 4.0634 119.474 3.4341C119.727 3.12461 119.644 2.8796 119.275 2.7558C118.912 2.63716 118.54 2.4721 118.169 2.46178C116.966 2.4231 115.764 2.44631 114.516 2.44631Z" fill="black"/>
</g>
<defs>
<clipPath id="clip0_5483_21742">
<rect width="188.4" height="141.6" fill="white" transform="translate(0.799805)"/>
</clipPath>
</defs>
</svg>
