<svg width="230" height="140" viewBox="0 0 230 140" fill="none" xmlns="http://www.w3.org/2000/svg">
<mask id="mask0_5596_21746" style="mask-type:alpha" maskUnits="userSpaceOnUse" x="0" y="0" width="230" height="130">
<rect width="230" height="129.078" fill="#D9D9D9"/>
</mask>
<g mask="url(#mask0_5596_21746)">
</g>
<g clip-path="url(#clip0_5596_21746)">
<path d="M121.238 139.873C120.71 139.8 120.172 139.769 119.653 139.649C116.5 138.914 113.635 137.637 111.536 135.042C110.348 133.572 109.216 132.058 108.099 130.53C106.661 128.565 105.257 126.576 103.853 124.584C102.853 123.163 102.014 121.654 101.471 119.991C101.447 119.92 101.394 119.857 101.293 119.689C100.8 120.555 100.277 121.325 99.8996 122.16C98.021 126.314 95.2019 129.778 92.0804 133.021C91.3696 133.759 90.5837 134.422 89.8596 135.148C88.4777 136.534 86.864 137.566 85.1001 138.379C83.1928 139.256 81.2281 139.382 79.2081 138.861C77.2787 138.361 75.3913 137.782 73.7687 136.545C72.3603 135.47 71.4176 134.063 70.9673 132.373C70.7333 131.494 70.8106 130.608 71.2477 129.693C71.7576 128.63 71.9055 127.4 72.3205 126.281C73.5303 123.008 75.0954 119.928 77.1882 117.113C78.9013 114.811 80.4333 112.371 82.1089 110.037C82.8683 108.98 83.7381 107.992 84.6343 107.049C85.8882 105.73 86.8198 105.648 88.6984 106.52C89.0649 106.691 89.4181 106.895 89.7779 107.084C89.8331 107.026 89.8905 106.969 89.9457 106.911C89.683 106.567 89.491 106.087 89.1444 105.905C88.3607 105.49 87.5218 105.135 86.6653 104.917C85.7845 104.695 85.0383 105.201 84.3628 105.721C82.5747 107.102 81.2325 108.887 79.9521 110.723C78.5039 112.799 77.0734 114.891 75.6186 116.964C73.7179 119.673 72.3779 122.637 71.5722 125.848C71.4949 126.156 71.4243 126.314 71.06 126.358C70.2741 126.456 69.5015 126.671 68.7156 126.774C68.4463 126.809 68.146 126.569 67.8679 126.585C66.2409 126.676 64.6184 126.86 62.9936 126.911C60.2584 126.998 57.5188 127.011 54.7837 127.051C54.6645 127.051 54.5452 127.024 54.4282 126.996C54.0353 126.893 53.6092 126.8 53.6026 126.274C53.596 125.75 54.0066 125.608 54.4062 125.532C55.0618 125.408 55.7241 125.284 56.3864 125.244C57.68 125.168 58.978 125.173 60.2717 125.108C62.3953 125.004 64.519 124.862 66.6449 124.755C67.3248 124.722 68.007 124.751 68.6935 124.751C69.124 123.361 69.5302 121.978 69.9783 120.608C72.6715 112.384 77.0425 105.195 83.1442 99.0801C84.2966 97.9256 85.4953 96.8265 86.9655 96.0783C87.0626 96.0295 87.162 95.8896 87.1752 95.783C87.2348 95.2701 87.2635 94.7528 87.3077 94.2377C87.354 93.6938 87.2481 93.2697 86.7712 92.8789C85.7933 92.0796 84.8617 91.2115 83.9654 90.3212C81.2744 87.6457 79.3715 84.4819 78.4024 80.7984C78.0757 79.5595 77.718 78.2273 77.8439 76.9862C78.2633 72.821 79.3075 68.8711 82.8307 66.1136C83.0515 65.9404 83.2723 65.7295 83.5283 65.6562C83.7601 65.5896 84.1001 65.6029 84.2701 65.7383C84.3782 65.8249 84.3473 66.2468 84.2348 66.4288C83.9279 66.9195 83.546 67.3636 83.1928 67.8254C82.0404 69.1331 81.3009 70.654 80.9345 72.3547C80.7027 73.4316 80.5857 74.535 80.3141 75.6008C80.0382 76.6843 80.3627 77.6812 80.5459 78.7114C80.9985 81.2602 82.3451 83.3806 83.6674 85.5276C84.833 87.4193 86.5814 88.7004 88.204 90.1702C88.3187 89.9126 88.385 89.695 88.5042 89.5108C89.1024 88.5849 89.6058 87.568 90.3431 86.771C91.8288 85.1657 94.4447 84.4219 96.6876 86.6599C97.9636 87.9322 98.9393 89.3886 99.4603 91.1249C100.039 93.0521 100.588 94.9904 101.165 96.9198C101.226 97.1307 101.348 97.4327 101.507 97.4838C102.048 97.6547 102.619 97.7346 103.207 97.8523C103.293 97.4926 103.368 97.224 103.425 96.9509C104.123 93.6405 105.31 90.5476 107.379 87.8367C108.796 85.9805 110.5 84.5485 112.79 83.9179C114.827 83.3584 116.666 83.7181 118.123 85.2834C118.794 86.005 119.37 86.8709 119.777 87.7701C120.172 88.6449 120.295 89.6462 120.54 90.5898C120.531 90.6076 120.509 90.6276 120.514 90.6431C120.523 90.6786 120.545 90.7119 120.56 90.7475C120.62 91.469 120.679 92.1928 120.739 92.9144C120.739 93.1564 120.739 93.3985 120.739 93.6405C120.719 94.0001 120.699 94.3598 120.679 94.7195C120.675 94.7728 120.671 94.8239 120.666 94.8772C120.26 97.0841 119.854 99.2933 119.443 101.531C119.556 101.538 119.752 101.565 119.949 101.562C121.794 101.549 123.64 101.569 125.483 101.502C126.567 101.462 127.677 101.407 128.726 101.147C132.243 100.277 135.539 98.8315 138.766 97.184C142.333 95.3612 144.667 92.4082 146.446 88.949C146.881 88.1031 146.969 87.0773 147.217 86.1337C147.263 85.5787 147.331 85.0236 147.347 84.4685C147.371 83.4983 147.413 82.5236 147.356 81.5578C147.289 80.4299 147.122 79.3086 147.002 78.1829C146.952 77.71 146.892 77.2371 146.877 76.762C146.843 75.7562 147.62 75.2922 148.563 75.6319C149.281 75.8916 149.576 76.3246 149.722 77.0573C150.117 79.0222 150.47 80.9871 150.345 83.0009C150.307 83.6026 150.025 84.1954 150.013 84.7949C149.978 87.0529 149.409 89.1466 148.285 91.0938C146.082 94.9105 143.238 98.0721 139.177 99.9438C136.709 101.081 134.282 102.317 131.671 103.11C131.618 103.125 131.574 103.174 131.556 103.185C139.605 109.062 144.941 116.864 147.958 126.456C148.066 126.456 148.281 126.456 148.497 126.456C151.305 126.456 154.113 126.449 156.919 126.456C157.329 126.456 157.751 126.496 158.148 126.591C158.305 126.629 158.515 126.876 158.515 127.024C158.515 127.238 158.389 127.577 158.232 127.639C157.835 127.793 157.393 127.85 156.963 127.89C156.25 127.959 155.535 127.984 154.819 128.026C154.775 128.05 154.731 128.075 154.687 128.097C154.488 128.11 154.287 128.132 154.089 128.135C151.532 128.181 148.974 128.254 146.417 128.259C144.402 128.261 142.384 128.197 140.369 128.126C139.243 128.086 138.121 127.979 136.998 127.895C136.605 127.866 136.402 127.671 136.265 127.262C135.516 125.017 134.797 122.759 133.929 120.561C132.889 117.93 131.313 115.634 129.251 113.685C127.6 112.124 125.969 110.543 124.32 108.983C124.015 108.694 123.664 108.454 123.333 108.192C122.231 107.322 120.995 107.102 119.655 107.453C118.79 107.679 117.933 107.935 117.072 108.181C116.977 108.208 116.887 108.254 116.794 108.29C116.829 108.383 116.863 108.476 116.898 108.572C117.286 108.581 117.679 108.63 118.063 108.587C118.657 108.525 119.242 108.381 119.836 108.305C120.838 108.179 121.763 108.385 122.494 109.122C124.419 111.063 126.313 113.032 128.24 114.973C130.048 116.793 131.446 118.898 132.404 121.267C133.397 123.718 134.265 126.223 135.183 128.705C135.287 128.987 135.324 129.298 135.457 129.564C136.19 131.034 135.896 132.429 135.256 133.843C134.912 134.602 134.739 135.439 134.455 136.227C133.739 138.21 132.404 139.511 130.307 139.935C130.095 139.978 129.876 139.975 129.66 139.995C129.618 139.995 129.576 139.993 129.534 139.991C126.887 139.953 124.242 139.918 121.596 139.88C121.474 139.878 121.355 139.873 121.233 139.871L121.238 139.873ZM99.8246 106.711C99.7914 106.585 99.7561 106.456 99.723 106.329C99.6347 105.197 99.6082 104.056 99.4449 102.935C99.1976 101.229 98.9283 99.5197 98.5353 97.8434C98.021 95.652 97.4117 93.4806 96.7759 91.3203C96.4249 90.1258 95.7295 89.1 94.8266 88.2385C94.5904 88.0121 94.288 87.81 93.9789 87.7168C92.8774 87.3882 92.0451 87.9566 91.491 88.7847C90.6543 90.037 90.1157 91.4579 90.098 92.9877C90.076 94.8328 90.1267 96.6822 90.2172 98.5251C90.2636 99.4842 90.3674 100.461 90.6212 101.383C91.14 103.259 91.7603 105.108 92.3807 106.955C92.4822 107.253 92.7604 107.573 93.0407 107.715C94.6854 108.547 96.3543 109.331 98.0166 110.133C98.5729 110.401 99.1314 110.67 99.6877 110.941C99.7318 110.903 99.7738 110.868 99.8179 110.83C99.8179 109.458 99.8224 108.083 99.8224 106.711H99.8246ZM103.204 112.504C103.705 112.306 103.997 112.184 104.293 112.078C106.339 111.332 108.383 110.581 110.436 109.851C111.379 109.515 112.344 109.247 113.28 108.894C113.542 108.794 113.823 108.543 113.938 108.29C114.247 107.606 114.47 106.882 114.73 106.176C115.271 104.715 115.851 103.265 116.346 101.789C116.631 100.938 116.807 100.05 116.982 99.1667C117.335 97.3994 117.796 95.6365 117.94 93.8514C118.05 92.4659 117.81 91.0361 117.609 89.644C117.414 88.3007 116.768 87.1528 115.529 86.5134C115.032 86.2558 114.364 86.0871 113.834 86.1915C112.361 86.4779 111.081 87.215 110.024 88.3074C108.438 89.9482 107.22 91.8332 106.458 93.9868C105.937 95.4611 105.538 96.982 105.096 98.4851C104.271 101.314 103.741 104.198 103.544 107.14C103.427 108.872 103.324 110.603 103.202 112.508L103.204 112.504Z" fill="#1D1D1D"/>
<path d="M144.892 32.6342C144.901 35.5383 144.909 38.4425 144.914 41.3488C144.914 41.5486 144.907 41.764 144.837 41.946C144.528 42.7476 144.552 43.4869 145.185 44.1419C146.706 43.76 148.249 43.347 149.806 42.9896C150.943 42.7298 152.097 42.5433 153.245 42.3235C153.289 42.3279 153.336 42.3302 153.38 42.3346C154.777 42.3346 156.177 42.3346 157.574 42.3324C157.632 42.3501 157.687 42.3657 157.744 42.3834C157.848 42.4056 157.952 42.4301 158.055 42.4523C158.111 42.4722 158.166 42.4922 158.221 42.5122C160.031 43.0295 161.53 44.042 162.731 45.4785C164.027 47.0305 165.144 48.7267 165.804 50.6428C166.689 53.2073 166.901 55.8338 165.824 58.4227C165.369 59.5173 164.866 60.5941 164.347 61.662C163.362 63.6869 161.828 65.2234 160.047 66.5511C159.179 67.1972 158.376 67.9321 157.574 68.6648C156.307 69.8238 154.927 70.7096 153.203 71.0627C151.413 71.4268 149.651 71.9374 147.876 72.3837C147.839 72.3926 147.801 72.4392 147.77 72.4348C147.43 72.3793 147.093 72.3171 146.755 72.2572C146.872 71.993 146.943 71.6932 147.113 71.4712C148.066 70.2278 149.331 69.3664 150.843 69.0955C153.243 68.6692 155.203 67.5791 156.806 65.7584C157.135 65.3832 157.521 65.0346 157.938 64.7682C160.543 63.1141 161.996 60.6252 163.106 57.8299C164.056 55.4342 163.897 53.1051 162.875 50.8338C162.325 49.6126 161.625 48.4337 160.837 47.3502C159.457 45.4585 157.625 44.3994 155.179 44.5238C153.543 44.6059 151.934 44.7769 150.331 45.1055C148.267 45.5296 146.203 45.9892 144.117 46.2645C143.115 46.3955 142.057 46.1712 141.035 46.0269C140.814 45.9958 140.519 45.6384 140.474 45.3897C140.399 44.9723 140.783 45.0256 141.082 44.9923C141.671 44.9301 142.256 44.8191 142.958 44.7103C142.15 44.3839 141.567 43.9776 141.536 43.1072C141.536 43.0473 141.441 42.9829 141.382 42.9318C140.596 42.2769 139.81 41.6219 138.892 40.8603C138.792 41.0224 138.722 41.2 138.6 41.3266C136.092 43.9443 133.768 46.7085 131.792 49.7592C130.808 51.2778 129.819 52.7943 128.812 54.2974C128.49 54.7792 128.147 55.2632 127.739 55.6718C126.958 56.4555 126.028 56.4178 125.244 55.6296C124.445 54.8236 124.395 53.8467 124.542 52.7854C125.392 46.6686 128.286 41.5042 131.905 36.6707C131.938 36.6263 131.949 36.5641 131.989 36.4686C130.516 35.938 129.059 35.3985 127.591 34.8989C127.459 34.8545 127.18 35.001 127.081 35.1387C125.556 37.2591 123.971 39.3439 122.551 41.5353C120.233 45.1166 118.035 48.7734 116.352 52.7144C115.831 53.9355 115.308 55.1567 114.739 56.3556C114.509 56.8418 114.2 57.3059 113.849 57.7122C112.917 58.7935 111.593 58.8312 110.577 57.8165C109.657 56.8973 109.242 55.6917 108.986 54.4706C108.769 53.4426 108.745 52.3636 108.725 51.3045C108.686 49.2019 109.246 47.1859 109.745 45.1699C110.838 40.7649 112.509 36.5974 114.97 32.7719C115.057 32.6409 115.132 32.501 115.264 32.2768C114.566 32.2768 113.942 32.2612 113.317 32.2812C112.898 32.2945 112.476 32.3278 112.063 32.4033C111.445 32.5143 110.864 32.4522 110.361 33.1582C108.672 35.5295 107.206 38.0117 106.078 40.6894C104.714 43.931 103.425 47.2036 102.085 50.4541C101.888 50.9337 101.619 51.3955 101.314 51.8129C100.897 52.3835 100.169 52.4612 99.7604 51.935C98.8221 50.7228 97.9369 49.4417 98.1356 47.7898C98.3872 45.7027 98.7427 43.6357 99.2769 41.593C100.005 38.8044 101.264 36.2466 102.44 33.6489C102.555 33.3958 102.716 33.1671 102.86 32.9184C101.44 31.7261 100.149 30.4695 100.144 28.2936C100.325 28.4357 100.44 28.4823 100.484 28.5667C101.248 30.0299 102.465 31.0512 103.851 31.8283C104.361 32.1147 105.087 32.0126 105.712 32.088C105.809 31.6951 105.889 31.3798 105.972 31.0467C106.418 31.4242 108.218 31.5663 108.666 31.2754C108.727 31.2355 108.783 31.1644 108.816 31.0956C110.836 26.7949 113.655 23.0338 116.659 19.4059C118.697 16.9414 120.677 14.408 122.918 12.1389C125.169 9.85649 127.69 7.83826 130.136 5.75565C131.236 4.82091 132.432 3.99941 133.602 3.15127C134.92 2.19655 136.443 1.91458 138 2.14771C138.66 2.2454 139.402 2.64505 139.847 3.14239C140.49 3.85732 141.037 4.73432 141.375 5.63575C142.11 7.59181 142.788 9.58339 143.3 11.6083C143.651 13.0026 143.684 14.4769 143.859 15.9156C143.901 16.0377 143.94 16.1598 143.982 16.2819C144.02 18.1114 144.018 19.941 144.106 21.7682C144.168 23.0693 144.353 24.3659 144.472 25.6648C144.556 26.5973 144.642 27.5321 144.686 28.4668C144.753 29.8056 144.781 31.1489 144.828 32.4877C144.848 32.5343 144.867 32.5809 144.887 32.6298L144.892 32.6342ZM114.661 24.3593C115.602 24.3393 116.542 24.2927 117.483 24.306C119.032 24.3304 120.414 23.9685 121.461 22.7252C122.695 21.2598 122.225 18.8819 120.531 17.976C120.22 17.8095 119.995 17.8162 119.752 18.107C118.048 20.1674 116.333 22.2167 114.622 24.2705L114.555 24.3282C114.591 24.3393 114.628 24.3482 114.664 24.3593H114.661ZM142.154 40.3608V30.9535C141.79 31.1 141.602 31.2022 141.399 31.251C140.463 31.4753 139.516 31.8816 138.587 31.8505C137.3 31.8061 136.042 31.382 135.028 30.4695C133.967 29.5148 133.278 28.3802 133.397 26.8926C133.512 25.4628 133.986 24.155 134.876 23.0227C136.324 21.1776 139.068 20.6625 141.104 21.8415C141.146 21.8681 141.187 21.8926 141.229 21.9192C141.28 21.746 141.375 21.5728 141.375 21.3997C141.384 19.8455 141.457 18.2868 141.353 16.7415C141.232 14.9542 141.053 13.158 140.704 11.404C140.353 9.63224 139.786 7.90043 139.269 6.16418C139.117 5.65129 138.841 5.17172 138.587 4.69436C138.307 4.16593 137.821 3.96389 137.245 3.91948C136.28 3.84621 135.406 4.13041 134.642 4.67882C133.223 5.6957 131.843 6.76587 130.45 7.8205C130.404 7.85602 130.401 7.94705 130.381 8.00922C130.927 8.06695 131.441 8.09803 131.949 8.17796C133.209 8.37334 134.205 8.99502 134.578 10.2561C134.77 10.9089 134.673 11.646 134.722 12.3432C134.797 13.4156 134.56 14.4325 134.128 15.3938C133.616 16.5351 132.854 17.4587 131.58 17.7762C129.119 18.3868 125.589 16.3219 126.097 12.865C126.176 12.3188 126.306 11.7792 126.412 11.2353C126.359 11.1931 126.306 11.1509 126.251 11.1087C124.417 13.0404 122.582 14.972 120.723 16.9325C122.582 17.6852 123.759 19.3148 123.779 21.0622C123.801 22.9183 122.132 25.0542 120.156 25.5471C118.028 26.0778 115.891 26.0045 113.721 25.4095C112.471 27.2523 111.193 29.1351 109.873 31.0823C110.125 31.0601 110.284 31.0512 110.441 31.029C111.787 30.838 113.129 30.5272 114.483 30.4761C116.708 30.3895 118.946 30.354 121.143 30.9024C121.293 30.9402 121.562 30.8269 121.655 30.6982C122.545 29.4526 123.723 28.5645 125.077 27.9139C126.584 27.1901 128.097 27.1835 129.54 28.1027C131.092 29.0929 132.251 30.4695 133.284 31.9748C133.878 32.8385 133.73 33.8199 133.77 34.6613C134.64 35.1165 135.503 35.4429 136.22 35.9691C138.163 37.3901 140.042 38.8976 141.947 40.3719C142.004 40.4185 142.062 40.4673 142.119 40.514L142.157 40.3652L142.154 40.3608ZM141.931 29.3815C141.931 29.2816 141.94 29.1617 141.931 29.0418C141.799 27.481 141.658 25.9179 141.536 24.3571C141.459 23.3779 140.865 22.8961 139.989 22.6963C137.496 22.1279 135.565 23.7021 135.207 26.5907C135.008 28.1826 136.371 29.2861 137.516 29.7279C139.04 30.3163 140.477 30.0299 141.934 29.3815H141.931ZM128.386 9.781C127.865 11.1664 127.134 12.5919 127.724 14.2371C128.112 15.3183 129.43 16.1665 130.662 16.1621C131.585 16.1576 132.446 15.4693 132.763 14.2304C133.011 13.2624 133.066 12.2366 133.141 11.2308C133.194 10.5137 132.827 9.93197 132.123 9.78988C131.342 9.63224 130.523 9.64112 129.719 9.62558C129.313 9.61892 128.907 9.71661 128.388 9.781H128.386ZM132.238 34.184C132.002 33.5468 131.918 32.9739 131.613 32.5721C130.838 31.5507 130.035 30.5316 129.11 29.6546C128.143 28.7399 126.971 28.2603 125.602 28.8775C124.381 29.4282 123.225 30.0632 122.388 31.0867C125.611 32.0991 128.812 33.1072 132.238 34.184Z" fill="#1D1D1D"/>
<path d="M96.4605 29.9148C96.2111 30.3656 95.8579 30.4433 95.476 30.239C94.8777 29.9193 94.2971 29.5663 93.7276 29.1977C93.0388 28.7514 92.3501 28.3007 91.6944 27.8078C90.8423 27.1661 89.9063 27.215 88.9394 27.366C86.7539 27.7057 84.9084 28.707 83.4602 30.3678C81.4999 32.6191 79.714 35.0126 78.7537 37.8834C78.3232 39.1667 78.1841 40.5499 77.9281 41.891C77.8243 42.4416 78.0716 42.9012 78.4711 43.2298C79.6632 44.2112 80.8222 45.248 82.107 46.0895C83.2704 46.8511 84.5817 47.3861 85.8642 48.0411C86.1821 47.435 86.5044 46.82 86.8466 46.1694C83.8289 45.3879 82.1577 43.3519 81.3917 40.4656C81.1533 39.5641 81.2217 38.656 81.5109 37.7746C81.9149 36.5423 82.6147 35.4944 83.5529 34.6129C84.8112 33.4295 86.0607 32.2328 87.3544 31.0894C88.5972 29.9881 89.9019 29.8327 91.3103 30.9273C92.1757 31.6 93.1757 32.0974 94.1073 32.6857C94.9991 33.2497 95.8292 33.858 96.1184 34.9771C96.2332 35.4255 97.5555 35.9806 97.9705 35.7786C97.9529 36.045 98.0169 36.3381 97.9021 36.5157C97.7696 36.7244 97.4606 36.9842 97.2641 36.9575C96.4495 36.8465 95.9705 37.2861 95.4958 37.8345C94.0742 39.4731 92.5819 41.0539 91.2198 42.7413C90.4582 43.6872 89.829 44.7618 89.2661 45.8431C87.4272 49.3844 86.1998 53.1455 85.4801 57.071C85.2594 58.2766 85.0695 59.5044 85.0452 60.7255C85.0276 61.6159 85.2748 62.5195 85.4625 63.4054C85.617 64.1292 85.4271 64.7997 84.9084 65.0328C84.3587 65.2815 83.6677 65.0706 83.3697 64.3557C82.9812 63.4232 82.5948 62.4307 82.5176 61.4404C82.2703 58.2322 83.2704 55.2259 84.2306 52.2263C84.5066 51.3649 84.8245 50.5189 85.1291 49.6464C84.1975 49.4643 83.2615 49.3466 82.3631 49.0957C79.7625 48.3675 77.8022 46.7001 76.226 44.5731C75.5571 43.6694 75.3607 42.6436 75.6918 41.4602C76.6565 38.0033 77.6124 34.5619 79.5948 31.5068C80.6147 29.9348 81.8067 28.5516 83.2991 27.4193C85.3101 25.8917 87.6104 25.3411 90.0719 25.3766C90.8467 25.3877 91.5973 25.6164 92.2066 26.1781C93.4031 27.2794 94.6106 28.3673 95.8204 29.4552C96.0058 29.6218 96.2265 29.7483 96.465 29.9193L96.4605 29.9148Z" fill="#1D1D1D"/>
<path d="M153.621 46.2238C156.252 45.7776 157.789 47.2696 159.056 49.3233C160.307 51.3527 160.747 53.5552 160.588 55.8931C160.522 56.8611 160.1 57.7604 159.424 58.4331C157.906 59.9495 156.349 61.4327 154.738 62.8492C152.972 64.4012 150.841 65.3048 148.605 65.9309C147.749 66.1707 146.848 66.3128 145.961 66.3728C145.04 66.4372 144.649 65.7134 145.066 64.8985C145.131 64.7764 145.119 64.561 145.053 64.4323C144.338 63.0091 143.963 61.4971 143.742 59.9251C143.336 57.0366 142.779 54.1813 141.609 51.4837C141.336 50.8509 141.398 50.509 141.987 50.1471C142.634 49.7496 143.316 49.401 144.013 49.1057C145.671 48.4041 147.347 47.7447 149.018 47.072C150.493 46.4792 151.989 45.9951 153.625 46.2238H153.621Z" fill="#1D1D1D"/>
<path d="M111.116 75.8495C111.856 77.0529 111.586 77.7434 110.229 78.1808C109.566 78.3961 108.92 78.6604 108.257 78.8757C107.919 78.9845 107.562 79.0889 107.213 79.0955C105.955 79.1177 104.69 79.1621 103.438 79.06C102.893 79.0156 102.222 78.7736 101.871 78.3828C101.034 77.4481 100.314 76.3979 99.6235 75.3433C99.0407 74.4507 99.363 73.5515 99.8155 72.6967C100.27 72.5146 100.712 72.2815 101.182 72.1594C102.745 71.7509 104.321 71.7753 105.875 72.2038C106.35 72.3348 106.82 72.5413 107.24 72.7988C108.036 73.2873 108.825 73.8024 109.564 74.3752C110.125 74.8104 110.602 75.3544 111.116 75.8517V75.8495Z" fill="#1D1D1D"/>
<path d="M66.3007 52.6901C66.186 52.9765 66.0645 53.4938 65.7908 53.909C65.3934 54.5107 64.9343 54.5662 64.3515 54.1466C63.815 53.7603 63.2918 53.3473 62.8172 52.8899C61.5434 51.6666 60.2631 50.4476 59.0489 49.1643C57.5985 47.6323 57.7001 46.6155 59.4109 45.3566C60.3602 44.6572 61.3713 44.0377 62.3823 43.4271C63.1064 42.9898 63.8283 43.2451 64.0711 44.0377C64.7577 46.2624 65.4155 48.496 66.0469 50.7363C66.2014 51.2847 66.2014 51.8775 66.303 52.6879L66.3007 52.6901ZM63.868 51.6C63.8283 49.4907 62.9364 47.6279 62.4066 45.5297C61.5236 46.1647 60.7267 46.7376 59.8282 47.3859C61.2454 48.8646 62.5567 50.2323 63.868 51.6Z" fill="#1D1D1D"/>
<path d="M58.4399 61.5681C58.983 62.494 58.7423 63.0046 57.5767 63.1512C55.612 63.3976 53.6826 63.9394 51.6759 63.8683C50.2653 63.8195 49.5876 63.2133 49.6472 61.8057C49.7002 60.5779 49.8745 59.3567 49.9871 58.1311C50.0379 57.5761 50.0776 57.0188 50.1152 56.4637C50.1461 55.9886 50.1924 55.5134 50.7178 55.3158C51.2057 55.1316 51.4706 55.4935 51.7995 55.771C52.3161 56.2106 52.8724 56.6125 53.4442 56.9766C54.8968 57.9047 56.3736 58.7972 57.8306 59.7186C58.133 59.9096 58.4311 60.136 58.6651 60.4025C58.8417 60.6045 58.9984 60.902 58.9962 61.1551C58.9962 61.2928 58.643 61.426 58.4421 61.5681H58.4399ZM51.7223 57.6138C51.6561 57.8225 51.5832 57.9691 51.5677 58.1223C51.4397 59.3279 51.3139 60.5313 51.2013 61.7391C51.1461 62.3363 51.347 62.4962 51.9165 62.3541C52.0115 62.3297 52.1064 62.3075 52.2035 62.2941C54.1064 62.041 56.0094 61.7901 57.9123 61.5393C57.9211 61.4682 57.9299 61.3949 57.9388 61.3239C56.0226 59.8496 53.8658 58.7772 51.7223 57.6138Z" fill="#1D1D1D"/>
<path d="M99.3366 3.7018C99.2307 4.6543 99.107 5.81994 98.9702 6.98336C98.8201 8.26223 98.6633 9.53889 98.4955 10.8155C98.4624 11.0709 98.3852 11.3284 98.2924 11.5704C98.0386 12.241 97.4293 12.4408 96.8619 11.9834C96.4778 11.6726 96.0761 11.304 95.8685 10.8711C94.8707 8.79288 93.9193 6.69028 92.9921 4.57881C92.7426 4.01042 92.9634 3.48199 93.5418 3.20668C95.0186 2.50507 96.586 2.09432 98.213 1.98775C98.9922 1.93669 99.3344 2.46289 99.3366 3.7018ZM96.7714 9.65656C96.8288 9.6277 96.8862 9.59662 96.9458 9.56775C97.2196 7.58061 97.4911 5.59347 97.7759 3.52418C96.6434 3.83724 95.6103 4.12143 94.4645 4.43671C95.2593 6.23513 96.0142 7.94696 96.7714 9.65878V9.65656Z" fill="#1D1D1D"/>
<path d="M173.495 85.9674C173.451 86.4847 173.438 87.093 173.345 87.6859C173.127 89.0891 172.158 89.6308 170.78 89.3622C169.182 89.0513 167.557 88.867 165.937 88.6939C165.126 88.6073 164.294 88.6717 163.639 88.0611C163.519 87.9501 163.369 87.8146 163.349 87.6725C163.336 87.5793 163.51 87.4172 163.634 87.355C165.12 86.6135 166.605 85.8741 168.102 85.157C169.113 84.6729 170.14 84.2267 171.162 83.7693C171.38 83.6716 171.603 83.545 171.833 83.5162C172.875 83.383 173.199 83.3608 173.4 84.4953C173.48 84.9483 173.46 85.4167 173.491 85.9651L173.495 85.9674ZM172.045 84.7151C170.228 85.5166 168.515 86.2693 166.753 87.0442C168.248 87.355 169.672 87.6659 171.102 87.939C171.504 88.0145 171.871 87.8901 171.901 87.3772C171.952 86.5402 171.992 85.7031 172.043 84.7151H172.045Z" fill="#1D1D1D"/>
<path d="M166.683 100.226C167.897 100.09 169.107 99.8904 170.323 99.8326C171.941 99.7549 173.566 99.7771 175.189 99.7927C175.376 99.7927 175.659 99.9969 175.721 100.17C175.782 100.35 175.694 100.661 175.56 100.818C175.193 101.245 174.727 101.584 174.376 102.02C173.646 102.921 172.937 103.842 172.272 104.795C171.853 105.394 171.648 105.541 170.992 105.228C169.151 104.346 167.316 103.454 165.5 102.526C164.595 102.064 164.575 101.582 165.356 100.943C165.387 100.918 165.433 100.905 165.455 100.874C165.794 100.406 166.205 100.191 166.687 100.228L166.683 100.226ZM173.952 100.783C173.35 100.783 172.723 100.712 172.118 100.796C170.328 101.047 168.539 101.218 166.729 101.149C166.61 101.145 166.489 101.191 166.367 101.214L166.334 101.347C167.957 102.293 169.581 103.239 171.091 104.118C172.12 102.919 173.027 101.862 173.955 100.783H173.952Z" fill="#1D1D1D"/>
<path d="M110.638 13.5323C110.443 13.8897 110.302 14.3582 109.997 14.6624C109.536 15.1242 108.973 15.4883 108.432 15.8658C107.152 16.7583 105.856 17.6287 104.571 18.5168C104.43 18.6145 104.353 18.8054 104.209 18.8987C104.01 19.0274 103.732 19.2295 103.569 19.1718C103.359 19.0985 103.189 18.8165 103.081 18.5856C103.019 18.4524 103.081 18.2281 103.15 18.0749C104.194 15.7525 105.229 13.4279 106.311 11.1233C106.796 10.0864 107.406 9.92433 108.317 10.6259C109.037 11.181 109.673 11.8537 110.291 12.5265C110.485 12.7396 110.503 13.1171 110.638 13.5323ZM105.384 15.757L105.498 15.888C106.618 15.2108 107.75 14.5536 108.849 13.8431C109.236 13.5944 109.196 13.1459 108.909 12.8418C108.452 12.3533 107.929 11.927 107.351 11.3986C106.657 12.935 106.019 14.3471 105.381 15.757H105.384Z" fill="#1D1D1D"/>
<path d="M121.596 75.2338C121.39 75.5224 121.185 75.8155 120.977 76.1019C120.492 76.7725 119.878 77.2476 119.013 77.0433C118.231 76.8568 117.988 76.173 117.834 75.4647C117.774 74.1414 118.187 72.9336 118.796 71.7946C119.335 70.7888 119.951 70.5291 120.92 70.7644C121.596 70.9287 122.26 71.7835 122.181 72.6805C122.103 73.542 121.801 74.3834 121.596 75.2316V75.2338Z" fill="#1D1D1D"/>
<path d="M94.6409 69.2989C93.387 70.2714 92.4643 69.874 91.9698 68.1444C91.9632 66.1462 92.6122 64.4876 94.4136 63.4463C95.1332 63.0289 96.0074 63.2909 96.1619 64.1013C96.3076 64.8606 96.2613 65.691 96.131 66.4637C95.9478 67.5472 95.3672 68.4752 94.6409 69.3012V69.2989Z" fill="#1D1D1D"/>
<path d="M96.917 29.4671C97.0605 29.718 97.1267 29.849 97.2062 29.9711C97.8685 30.9746 98.5109 31.9937 99.2085 32.9729C99.4204 33.2704 99.7957 33.4458 100.072 33.7033C100.22 33.841 100.442 34.063 100.409 34.1918C100.363 34.3805 100.133 34.6292 99.9546 34.6536C99.6389 34.698 99.2548 34.6803 98.9833 34.5337C97.6698 33.8299 96.5395 31.1389 96.9192 29.4648L96.917 29.4671Z" fill="#1D1D1D"/>
<path d="M154.689 128.095C154.734 128.07 154.778 128.046 154.823 128.023C154.778 128.048 154.734 128.073 154.689 128.095Z" fill="white"/>
<path d="M144.892 32.6343C144.872 32.5877 144.852 32.541 144.832 32.4922C144.852 32.5388 144.872 32.5854 144.892 32.6343Z" fill="white"/>
<path d="M129.538 139.992C129.58 139.992 129.623 139.994 129.665 139.997C129.623 139.997 129.58 139.994 129.538 139.992Z" fill="white"/>
<path d="M120.541 90.5882C120.548 90.6392 120.554 90.6925 120.561 90.7436C120.545 90.7103 120.523 90.677 120.514 90.6392C120.51 90.6259 120.532 90.6037 120.541 90.5859V90.5882Z" fill="white"/>
<path d="M141.945 40.3699C142.016 40.3699 142.087 40.3655 142.155 40.3633C142.142 40.4121 142.131 40.4632 142.118 40.512C142.06 40.4654 142.003 40.4166 141.945 40.3699Z" fill="white"/>
<path d="M114.62 24.2718L114.667 24.3031L114.663 24.359C114.627 24.3478 114.589 24.3389 114.554 24.3277L114.62 24.2695V24.2718Z" fill="white"/>
</g>
<defs>
<clipPath id="clip0_5596_21746">
<rect width="126.096" height="138.014" fill="white" transform="translate(49.6445 1.98438)"/>
</clipPath>
</defs>
</svg>
