<svg width="24" height="24" viewBox="0 0 24 24" fill="none" xmlns="http://www.w3.org/2000/svg">
<path d="M20.0472 16.4733C18.8435 15 17.9937 14.25 17.9937 10.1883C17.9937 6.46875 16.0943 5.1436 14.531 4.5C14.3233 4.41469 14.1279 4.21875 14.0646 4.00547C13.7904 3.07219 13.0216 2.25 11.9997 2.25C10.9779 2.25 10.2087 3.07266 9.93725 4.00641C9.87396 4.22203 9.6785 4.41469 9.47084 4.5C7.90568 5.14453 6.00818 6.465 6.00818 10.1883C6.00584 14.25 5.15599 15 3.95224 16.4733C3.45349 17.0836 3.89037 18 4.76271 18H19.2415C20.1091 18 20.5432 17.0808 20.0472 16.4733Z" stroke="currentColor" stroke-width="2" stroke-linecap="round" stroke-linejoin="round"/>
<path d="M15.0009 18V18.7501C15.0009 19.5459 14.6847 20.309 14.122 20.8717C13.5594 21.4344 12.7962 21.7505 12.0004 21.7505C11.2047 21.7505 10.4415 21.4344 9.8788 20.8717C9.31612 20.309 9 19.5459 9 18.7501V18" stroke="currentColor" stroke-width="2" stroke-linecap="round" stroke-linejoin="round"/>
</svg>
