<svg width="100%" height="100%" viewBox="0 0 60 60" fill="none" xmlns="http://www.w3.org/2000/svg">
<path d="M50.1181 41.1793C47.1087 37.4961 44.9841 35.6211 44.9841 25.4668C44.9841 16.168 40.2357 12.8551 36.3275 11.2461C35.8084 11.0328 35.3197 10.543 35.1615 10.0098C34.4759 7.67656 32.5541 5.62109 29.9994 5.62109C27.4447 5.62109 25.5216 7.67774 24.8431 10.0121C24.6849 10.5512 24.1962 11.0328 23.6771 11.2461C19.7642 12.8574 15.0205 16.1586 15.0205 25.4668C15.0146 35.6211 12.89 37.4961 9.88061 41.1793C8.63373 42.7051 9.72592 44.9961 11.9068 44.9961H48.1037C50.2728 44.9961 51.358 42.6981 50.1181 41.1793Z" stroke="currentColor" stroke-width="3" stroke-linecap="round" stroke-linejoin="round"/>
<path d="M37.5021 44.9961V46.8714C37.5021 48.8608 36.7118 50.7687 35.3051 52.1754C33.8984 53.5821 31.9905 54.3724 30.0011 54.3724C28.0117 54.3724 26.1037 53.5821 24.697 52.1754C23.2903 50.7687 22.5 48.8608 22.5 46.8714V44.9961" stroke="currentColor" stroke-width="3" stroke-linecap="round" stroke-linejoin="round"/>
</svg>
