<svg width="100%" height="100%" viewBox="0 0 28 28" fill="none" xmlns="http://www.w3.org/2000/svg">
<path d="M14.0011 3.86172C16.5561 3.86172 18.6445 5.95005 18.6445 8.50505C18.6445 11.0601 16.5561 13.1484 14.0011 13.1484C11.4461 13.1484 9.35781 11.0601 9.35781 8.50505C9.35781 5.95005 11.4461 3.86172 14.0011 3.86172ZM14.0011 1.76172C10.2795 1.76172 7.25781 4.78339 7.25781 8.50505C7.25781 12.2267 10.2795 15.2484 14.0011 15.2484C17.7228 15.2484 20.7445 12.2267 20.7445 8.50505C20.7445 4.78339 17.7228 1.76172 14.0011 1.76172Z" fill="#BBBBBB"/>
<path d="M13.9992 18.6664C20.1008 18.6664 22.6325 21.8164 23.6708 24.1264H4.33917C5.3775 21.8047 7.8975 18.6664 13.9992 18.6664ZM13.9992 16.5664C2.6475 16.5664 1.5625 26.2381 1.5625 26.2381H26.4475C26.4475 26.2381 25.3625 16.5781 14.0108 16.5781L13.9992 16.5664Z" fill="currentColor"/>
</svg>
